<?xml version="1.0" encoding="utf-8"?>
<!-- Generator: Adobe Illustrator 25.0.1, SVG Export Plug-In . SVG Version: 6.00 Build 0)  -->
<svg version="1.1" id="Layer_1" xmlns="http://www.w3.org/2000/svg" xmlns:xlink="http://www.w3.org/1999/xlink" x="0px" y="0px"
	 viewBox="0 0 500 400" style="enable-background:new 0 0 500 400;" xml:space="preserve">
<style type="text/css">
	.st0{fill:#FFFFFF;}
</style>
<g>
	<path class="st0" d="M59.24,83.86H45.77v-4.13c0-1.93-0.17-3.16-0.52-3.69c-0.34-0.53-0.92-0.79-1.72-0.79
		c-0.87,0-1.53,0.36-1.98,1.07c-0.45,0.71-0.67,1.79-0.67,3.24c0,1.86,0.25,3.26,0.75,4.21c0.48,0.94,1.85,2.08,4.1,3.41
		c6.46,3.83,10.52,6.98,12.2,9.43c1.68,2.46,2.51,6.42,2.51,11.88c0,3.97-0.47,6.9-1.4,8.78c-0.93,1.88-2.73,3.46-5.39,4.74
		c-2.66,1.27-5.77,1.91-9.3,1.91c-3.88,0-7.19-0.74-9.94-2.2c-2.74-1.47-4.54-3.34-5.39-5.62s-1.27-5.5-1.27-9.68v-3.65h13.47v6.79
		c0,2.09,0.19,3.43,0.57,4.03s1.05,0.9,2.02,0.9c0.96,0,1.68-0.38,2.15-1.14c0.47-0.76,0.71-1.88,0.71-3.38
		c0-3.28-0.45-5.43-1.34-6.44c-0.92-1.01-3.18-2.7-6.79-5.06c-3.61-2.39-5.99-4.12-7.17-5.2c-1.17-1.08-2.14-2.57-2.91-4.48
		s-1.15-4.34-1.15-7.3c0-4.27,0.55-7.39,1.64-9.37c1.09-1.98,2.85-3.52,5.29-4.63c2.43-1.11,5.37-1.67,8.82-1.67
		c3.77,0,6.98,0.61,9.63,1.83c2.65,1.22,4.41,2.75,5.27,4.6s1.29,4.99,1.29,9.42V83.86z"/>
	<path class="st0" d="M97.37,66.98v55.77H84.66L77.12,97.4v25.35H64.99V66.98h12.13l8.13,25.11V66.98H97.37z"/>
	<path class="st0" d="M136.33,99.64c0,5.6-0.13,9.57-0.4,11.9c-0.26,2.33-1.09,4.46-2.48,6.39c-1.39,1.93-3.27,3.41-5.63,4.44
		c-2.37,1.03-5.12,1.55-8.27,1.55c-2.99,0-5.67-0.49-8.04-1.46c-2.38-0.98-4.29-2.44-5.74-4.39c-1.45-1.95-2.31-4.08-2.58-6.37
		c-0.28-2.3-0.41-6.32-0.41-12.06V90.1c0-5.6,0.13-9.57,0.4-11.9c0.26-2.33,1.09-4.46,2.48-6.39s3.27-3.41,5.63-4.44
		c2.37-1.03,5.12-1.55,8.27-1.55c2.99,0,5.67,0.49,8.04,1.46c2.38,0.98,4.29,2.44,5.74,4.39c1.45,1.95,2.31,4.08,2.58,6.37
		c0.28,2.3,0.41,6.32,0.41,12.06V99.64z M121.83,81.31c0-2.6-0.14-4.25-0.43-4.98c-0.29-0.72-0.88-1.08-1.77-1.08
		c-0.76,0-1.34,0.29-1.74,0.88c-0.4,0.59-0.6,2.31-0.6,5.18v26.04c0,3.24,0.13,5.24,0.4,5.99s0.88,1.14,1.84,1.14
		c0.99,0,1.62-0.44,1.89-1.31c0.28-0.87,0.41-2.95,0.41-6.23V81.31z"/>
	<path class="st0" d="M196.34,66.98l-6.46,55.77h-18.11c-1.66-8.57-3.12-18.32-4.39-29.25c-0.58,4.69-1.93,14.44-4.05,29.25h-18
		l-6.49-55.77h14.09l1.53,19.46l1.48,18.81c0.54-9.74,1.87-22.49,4.01-38.27h15.06c0.2,1.63,0.73,7.76,1.58,18.4l1.6,21.22
		c0.82-13.5,2.17-26.71,4.05-39.62H196.34z"/>
	<path class="st0" d="M199.2,66.98h14.47c4.57,0,8.03,0.36,10.39,1.07c2.35,0.71,4.25,2.15,5.7,4.32c1.45,2.17,2.17,5.66,2.17,10.48
		c0,3.26-0.51,5.53-1.53,6.82c-1.02,1.29-3.04,2.27-6.05,2.96c3.35,0.76,5.63,2.02,6.82,3.77c1.19,1.76,1.79,4.45,1.79,8.08v5.17
		c0,3.77-0.43,6.56-1.29,8.38c-0.86,1.82-2.23,3.06-4.12,3.72c-1.88,0.67-5.74,1-11.57,1H199.2V66.98z M213.7,76.52v12.4
		c0.62-0.02,1.1-0.03,1.45-0.03c1.42,0,2.33-0.35,2.72-1.05c0.39-0.7,0.59-2.7,0.59-6.01c0-1.75-0.16-2.97-0.48-3.67
		c-0.32-0.7-0.74-1.14-1.26-1.33C216.2,76.65,215.2,76.55,213.7,76.52z M213.7,97.61v15.6c2.04-0.07,3.35-0.39,3.91-0.96
		c0.56-0.57,0.84-1.99,0.84-4.24v-5.2c0-2.39-0.25-3.84-0.76-4.34C217.19,97.96,215.86,97.67,213.7,97.61z"/>
	<path class="st0" d="M271.3,99.64c0,5.6-0.13,9.57-0.4,11.9c-0.26,2.33-1.09,4.46-2.48,6.39s-3.27,3.41-5.63,4.44
		c-2.37,1.03-5.12,1.55-8.27,1.55c-2.99,0-5.67-0.49-8.04-1.46c-2.38-0.98-4.29-2.44-5.74-4.39c-1.45-1.95-2.31-4.08-2.58-6.37
		s-0.41-6.32-0.41-12.06V90.1c0-5.6,0.13-9.57,0.4-11.9c0.26-2.33,1.09-4.46,2.48-6.39s3.27-3.41,5.63-4.44
		c2.37-1.03,5.12-1.55,8.27-1.55c2.98,0,5.67,0.49,8.04,1.46c2.38,0.98,4.29,2.44,5.74,4.39c1.45,1.95,2.31,4.08,2.58,6.37
		c0.28,2.3,0.41,6.32,0.41,12.06V99.64z M256.8,81.31c0-2.6-0.14-4.25-0.43-4.98c-0.29-0.72-0.88-1.08-1.77-1.08
		c-0.76,0-1.34,0.29-1.74,0.88c-0.4,0.59-0.6,2.31-0.6,5.18v26.04c0,3.24,0.13,5.24,0.4,5.99s0.88,1.14,1.84,1.14
		c0.99,0,1.62-0.44,1.9-1.31c0.28-0.87,0.41-2.95,0.41-6.23V81.31z"/>
	<path class="st0" d="M301.78,66.98l8.29,55.77h-14.82l-0.78-10.02h-5.19l-0.87,10.02h-14.99l7.4-55.77H301.78z M294.09,102.84
		c-0.73-6.32-1.47-14.12-2.21-23.42c-1.48,10.68-2.41,18.49-2.78,23.42H294.09z"/>
	<path class="st0" d="M312.54,66.98h10.27c6.84,0,11.48,0.26,13.9,0.79c2.42,0.53,4.4,1.88,5.93,4.05
		c1.53,2.17,2.29,5.63,2.29,10.39c0,4.34-0.54,7.26-1.62,8.75c-1.08,1.49-3.2,2.39-6.37,2.69c2.87,0.71,4.8,1.67,5.79,2.86
		c0.99,1.19,1.6,2.29,1.84,3.29c0.24,1,0.36,3.75,0.36,8.25v14.71h-13.47v-18.53c0-2.98-0.24-4.83-0.71-5.55s-1.71-1.07-3.7-1.07
		v25.15h-14.5V66.98z M327.04,76.52v12.4c1.63,0,2.77-0.22,3.43-0.67c0.65-0.45,0.98-1.9,0.98-4.36v-3.07
		c0-1.77-0.32-2.93-0.95-3.48C329.87,76.8,328.71,76.52,327.04,76.52z"/>
	<path class="st0" d="M350.53,66.98h10.85c7,0,11.74,0.32,14.21,0.96c2.47,0.64,4.35,1.7,5.63,3.17s2.09,3.11,2.41,4.91
		c0.32,1.8,0.48,5.35,0.48,10.63v19.53c0,5.01-0.24,8.35-0.71,10.04s-1.29,3.01-2.46,3.96c-1.17,0.95-2.62,1.62-4.34,2
		s-4.32,0.57-7.79,0.57h-18.29V66.98z M365.03,76.52v36.69c2.09,0,3.38-0.42,3.86-1.26c0.48-0.84,0.72-3.12,0.72-6.84V83.45
		c0-2.53-0.08-4.15-0.24-4.86c-0.16-0.71-0.53-1.23-1.1-1.57C367.7,76.69,366.62,76.52,365.03,76.52z"/>
	<path class="st0" d="M438.75,101.57v9.4l-3.88,2.48l4.86,9.3h-12.88l-1.67-3.1c-4.32,2.85-8.4,4.27-12.26,4.27
		c-4.04,0-7.15-1.34-9.33-4.03c-2.18-2.69-3.27-5.92-3.27-9.71c0-3.03,0.64-5.41,1.93-7.13c1.29-1.72,3.21-3.12,5.79-4.2
		c-3.67-2.64-5.51-6.21-5.51-10.71c0-3.88,1.31-7,3.93-9.37c2.62-2.37,6.22-3.55,10.82-3.55c4.13,0,7.39,1.16,9.77,3.48
		c2.38,2.32,3.57,5.27,3.57,8.85c0,3.77-1.45,7.11-4.34,10.02l4.91,8.88L438.75,101.57z M420.41,113.36l-4.49-7.52
		c-1.72,1.56-2.58,3.25-2.58,5.06c0,1.31,0.27,2.29,0.81,2.95c0.54,0.65,1.33,0.98,2.39,0.98
		C417.65,114.83,418.94,114.34,420.41,113.36z M417.26,91.78c1.58-2.04,2.38-4,2.38-5.86c0-0.8-0.23-1.54-0.69-2.2
		c-0.46-0.67-1.1-1-1.93-1c-0.76,0-1.33,0.25-1.72,0.76c-0.39,0.51-0.58,1.27-0.58,2.31C414.71,87.95,415.56,89.95,417.26,91.78z"/>
	<path class="st0" d="M59.24,168.52H45.77v-4.13c0-1.93-0.17-3.16-0.52-3.69c-0.34-0.53-0.92-0.79-1.72-0.79
		c-0.87,0-1.53,0.36-1.98,1.07c-0.45,0.71-0.67,1.79-0.67,3.24c0,1.86,0.25,3.26,0.75,4.21c0.48,0.94,1.85,2.08,4.1,3.41
		c6.46,3.83,10.52,6.98,12.2,9.43c1.68,2.46,2.51,6.42,2.51,11.88c0,3.97-0.47,6.9-1.4,8.78c-0.93,1.88-2.73,3.46-5.39,4.74
		c-2.66,1.28-5.77,1.91-9.3,1.91c-3.88,0-7.19-0.74-9.94-2.21s-4.54-3.34-5.39-5.61c-0.85-2.27-1.27-5.5-1.27-9.68v-3.65h13.47v6.79
		c0,2.09,0.19,3.43,0.57,4.03s1.05,0.9,2.02,0.9c0.96,0,1.68-0.38,2.15-1.14c0.47-0.76,0.71-1.88,0.71-3.38
		c0-3.28-0.45-5.43-1.34-6.44c-0.92-1.01-3.18-2.7-6.79-5.06c-3.61-2.39-5.99-4.12-7.17-5.2c-1.17-1.08-2.14-2.57-2.91-4.48
		s-1.15-4.34-1.15-7.3c0-4.27,0.55-7.39,1.64-9.37c1.09-1.98,2.85-3.52,5.29-4.63c2.43-1.11,5.37-1.67,8.82-1.67
		c3.77,0,6.98,0.61,9.63,1.83c2.65,1.22,4.41,2.75,5.27,4.6s1.29,4.99,1.29,9.42V168.52z"/>
	<path class="st0" d="M99.56,151.64l-8.32,25.18l9.11,30.59H85.37l-5.87-23.91v23.91h-14.5v-55.77h14.5v21.67l6.46-21.67H99.56z"/>
	<path class="st0" d="M117.35,151.64v55.77h-14.5v-55.77H117.35z"/>
	<path class="st0" d="M28.51,236.3h10.27c6.84,0,11.48,0.26,13.9,0.79c2.42,0.53,4.4,1.88,5.92,4.05s2.29,5.63,2.29,10.38
		c0,4.34-0.54,7.26-1.62,8.75c-1.08,1.49-3.2,2.39-6.37,2.69c2.87,0.71,4.8,1.67,5.79,2.86c0.99,1.2,1.6,2.29,1.84,3.29
		c0.24,1,0.36,3.75,0.36,8.25v14.71H47.42v-18.53c0-2.99-0.24-4.83-0.71-5.55c-0.47-0.71-1.71-1.07-3.7-1.07v25.15h-14.5V236.3z
		 M43.01,245.84v12.4c1.63,0,2.77-0.22,3.43-0.67c0.65-0.45,0.98-1.9,0.98-4.36v-3.07c0-1.77-0.32-2.93-0.95-3.48
		C45.84,246.12,44.69,245.84,43.01,245.84z"/>
	<path class="st0" d="M66.51,236.3h24.18v11.16h-9.68v10.58h9.06v10.61h-9.06v12.26h10.64v11.16H66.51V236.3z"/>
	<path class="st0" d="M128.2,236.3v55.77h-12.71l-7.54-25.35v25.35H95.82V236.3h12.13l8.13,25.11V236.3H128.2z"/>
	<path class="st0" d="M163.24,236.3v11.16h-8.61v44.61h-14.5v-44.61h-8.58V236.3H163.24z"/>
	<path class="st0" d="M188.79,236.3l8.29,55.77h-14.82l-0.78-10.03h-5.19l-0.87,10.03h-14.99l7.4-55.77H188.79z M181.1,272.16
		c-0.73-6.32-1.47-14.12-2.21-23.42c-1.48,10.68-2.41,18.49-2.78,23.42H181.1z"/>
	<path class="st0" d="M214.05,236.3v44.61h8.82v11.16h-23.32V236.3H214.05z"/>
</g>
</svg>
