<?xml version="1.0" encoding="utf-8"?>
<!-- Generator: Adobe Illustrator 16.0.0, SVG Export Plug-In . SVG Version: 6.00 Build 0)  -->
<!DOCTYPE svg PUBLIC "-//W3C//DTD SVG 1.1//EN" "http://www.w3.org/Graphics/SVG/1.1/DTD/svg11.dtd">
<svg version="1.1" id="icons" xmlns="http://www.w3.org/2000/svg" xmlns:xlink="http://www.w3.org/1999/xlink" x="0px" y="0px"
	 width="64px" height="64px" viewBox="0 0 64 64" enable-background="new 0 0 64 64" xml:space="preserve">
<g>
	<polygon fill="#FFCE54" points="46,1 44,3 42,1 40.01,3 40,3 38,1 36.01,3 36,3 34,1 32,3 30,1 28.01,3 28,3 26,1 24.01,3 24,3 
		22,1 20,3 18,1 16.01,3 16,3 14,1 12.01,3 12,3 10,1 8,3 6,1 4,3 4,63 48,63 48,3 	"/>
	<polygon fill="#E29F33" points="60,63 48,63 54,58 	"/>
	<polygon fill="#F6BB42" points="50,1 52,3 52.01,3 54,1 54,58 48,63 48,3 48.01,3 	"/>
	<polygon fill="#EDAB37" points="60,3 60,63 54,58 54,1 56,3 58,1 	"/>
	<path fill="#844747" d="M35,24v4c0,4.971-4.03,9.001-9,9.001c0,0,4-6.001,0-11.001s0-11,0-11C30.97,15,35,19.031,35,24z"/>
	<path fill="#773E3E" d="M26,37.001c4.97,0,9-4.03,9-9.001v3c0,4.971-4.03,9.001-9,9.001s-9-4.03-9-9.001v-3
		C17,32.971,21.03,37.001,26,37.001z"/>
	<path fill="#965353" d="M26,26c4,5,0,11.001,0,11.001c-4.97,0-9-4.03-9-9.001v-4c0-4.969,4.03-9,9-9C26,15,22,21,26,26z"/>
	<g>
		<g>
			<path fill="#EDAB37" d="M38.999,46.003h-26c-0.553,0-1-0.447-1-1s0.447-1,1-1h26c0.553,0,1,0.447,1,1
				S39.552,46.003,38.999,46.003z"/>
		</g>
		<g>
			<path fill="#EDAB37" d="M38.999,49.003h-26c-0.553,0-1-0.447-1-1s0.447-1,1-1h26c0.553,0,1,0.447,1,1
				S39.552,49.003,38.999,49.003z"/>
		</g>
		<g>
			<path fill="#EDAB37" d="M31.999,52.001h-12c-0.553,0-1-0.447-1-1s0.447-1,1-1h12c0.553,0,1,0.447,1,1
				S32.552,52.001,31.999,52.001z"/>
		</g>
	</g>
</g>
</svg>
