<svg xmlns="http://www.w3.org/2000/svg" xmlns:xlink="http://www.w3.org/1999/xlink" version="1.1" id="icon-panels" viewBox="-44 -44 600 600" xml:space="preserve">
<rect x="227.6" y="7.516" style="fill:#FDFCFC;" width="56.807" height="496.967"/>
<rect x="227.6" y="127.378" style="opacity:0.1;enable-background:new    ;" width="56.807" height="49.154"/>
<path style="fill:#C7B19E;" d="M382.662,53.914H109.146c-10.45,0-18.922,8.472-18.922,18.922v59.725  c0,10.45,8.472,18.922,18.922,18.922h273.516c6.283,0,12.156-3.119,15.675-8.324l20.191-29.862c4.329-6.402,4.329-14.794,0-21.198  l-20.191-29.862C394.819,57.032,388.946,53.914,382.662,53.914z"/>
<polygon style="fill:#6D4437;" points="119.187,123.461 119.187,81.934 378.773,81.934 392.813,102.697 378.773,123.461 "/>
<rect x="227.6" y="282.856" style="opacity:0.1;enable-background:new    ;" width="56.807" height="39.213"/>
<path style="fill:#C7B19E;" d="M129.337,199.441h273.516c10.45,0,18.922,8.472,18.922,18.922v59.725  c0,10.45-8.472,18.922-18.922,18.922H129.337c-6.283,0-12.156-3.119-15.675-8.324l-20.191-29.862  c-4.329-6.403-4.329-14.794,0-21.198l20.191-29.862C117.181,202.56,123.054,199.441,129.337,199.441z"/>
<polygon style="fill:#6D4437;" points="392.813,268.99 392.813,227.461 133.227,227.461 119.187,248.225 133.227,268.99 "/>
<path d="M384.999,127.671l14.04-20.765c1.72-2.542,1.72-5.876,0-8.419l-14.04-20.765c-1.398-2.067-3.731-3.306-6.226-3.306H119.187  c-4.151,0-7.516,3.365-7.516,7.516v41.528c0,4.151,3.365,7.516,7.516,7.516h43.479c4.151,0,7.516-3.365,7.516-7.516  c0-4.151-3.365-7.516-7.516-7.516h-35.963V89.449h248.08l8.958,13.248l-8.958,13.248H192.729c-4.151,0-7.516,3.365-7.516,7.516  c0,4.151,3.365,7.516,7.516,7.516h186.044C381.268,130.977,383.601,129.738,384.999,127.671z"/>
<path d="M400.329,268.99v-41.528c0-4.151-3.365-7.516-7.516-7.516H133.226c-2.495,0-4.828,1.239-6.226,3.306l-14.04,20.764  c-1.72,2.543-1.72,5.876,0,8.42L127,273.2c1.398,2.067,3.731,3.306,6.226,3.306h259.587  C396.964,276.506,400.329,273.14,400.329,268.99z M385.297,261.474h-248.08l-8.957-13.249l8.957-13.248h248.08V261.474z"/>
<path d="M382.662,158.998c8.791,0,16.978-4.347,21.901-11.63l20.192-29.862c6.082-8.997,6.082-20.621,0-29.617l-20.191-29.862  c-4.923-7.282-13.111-11.63-21.901-11.63h-90.744V7.516c0-4.151-3.365-7.516-7.516-7.516h-56.807c-4.151,0-7.516,3.365-7.516,7.516  v38.882H109.146c-14.578,0-26.438,11.86-26.438,26.438v59.725c0,14.578,11.86,26.438,26.438,26.438h110.935v32.927h-90.743  c-8.79,0-16.977,4.347-21.901,11.63l-20.191,29.862c-6.083,8.996-6.083,20.621,0,29.616l20.191,29.863  c4.924,7.282,13.112,11.63,21.901,11.63h90.743v100.472c0,4.151,3.365,7.516,7.516,7.516s7.516-3.365,7.516-7.516V304.526h41.775  v192.443h-41.775v-61.907c0-4.151-3.365-7.516-7.516-7.516s-7.516,3.365-7.516,7.516v69.423c0,4.151,3.365,7.516,7.516,7.516h56.807  c4.151,0,7.516-3.365,7.516-7.516V304.526h35.733c4.151,0,7.516-3.365,7.516-7.516c0-4.151-3.365-7.516-7.516-7.516H129.337  c-3.792,0-7.325-1.876-9.45-5.018l-20.191-29.862c-2.625-3.881-2.625-8.896,0-12.777l20.191-29.862  c2.124-3.143,5.658-5.018,9.45-5.018h273.515c6.289,0,11.406,5.117,11.406,11.406v59.725c0,6.289-5.117,11.406-11.406,11.406  h-45.285c-4.151,0-7.516,3.365-7.516,7.516c0,4.151,3.365,7.516,7.516,7.516h45.285c14.578,0,26.438-11.86,26.438-26.438v-59.725  c0-14.578-11.86-26.438-26.438-26.438H291.919v-32.927h90.743V158.998z M235.112,15.032h41.775v31.366h-41.775L235.112,15.032  L235.112,15.032z M97.74,132.559V72.835c0-6.289,5.117-11.406,11.406-11.406h273.516c3.793,0,7.325,1.876,9.449,5.018l20.191,29.862  c2.625,3.881,2.625,8.897,0,12.778l-20.191,29.863c-2.124,3.142-5.657,5.017-9.449,5.017H109.146  C102.857,143.966,97.74,138.85,97.74,132.559z M276.887,191.925h-41.775v-32.927h41.775V191.925z"/>
</svg>
