<?xml version="1.0" encoding="utf-8"?>
<!-- Generator: Adobe Illustrator 16.0.0, SVG Export Plug-In . SVG Version: 6.00 Build 0)  -->
<!DOCTYPE svg PUBLIC "-//W3C//DTD SVG 1.1//EN" "http://www.w3.org/Graphics/SVG/1.1/DTD/svg11.dtd">
<svg version="1.1" id="Слой_1" xmlns="http://www.w3.org/2000/svg" xmlns:xlink="http://www.w3.org/1999/xlink" x="0px" y="0px"
	 width="512px" height="512px" viewBox="0 0 512 512" enable-background="new 0 0 512 512" xml:space="preserve">
<g id="avalanche">
	<path fill="#9B5C5C" d="M277.264,58.642c-11.695-20.344-30.835-20.344-42.53,0L4.983,432.592
		c-11.695,20.342-2.07,36.966,21.398,36.966h459.235c23.468,0,33.093-16.624,21.405-36.966L277.264,58.642z"/>
	<path fill="#9B5C5C" d="M277.264,57.688c-11.695-20.328-30.835-20.328-42.53,0l-23.538,59.732l-32.538,31.78L4.983,432.592
		c-11.695,20.342-2.07,36.966,21.398,36.966h459.235c23.468,0,33.093-16.624,21.405-36.966L450.897,341l-84.06-104.052
		L277.264,57.688z"/>
	<path fill="#CBD0D8" d="M426.634,226.277c-23.562,0-42.671,19.108-42.671,42.671c0,23.554,19.109,42.646,42.671,42.646
		c23.545,0,42.654-19.093,42.654-42.646C469.288,245.386,450.179,226.277,426.634,226.277L426.634,226.277z"/>
	<path fill="#CBD0D8" d="M394.635,226.277c0,5.89-4.766,10.671-10.672,10.671c-5.875,0-10.656-4.781-10.656-10.671
		c0-5.875,4.781-10.656,10.656-10.656C389.869,215.621,394.635,220.402,394.635,226.277z"/>
	<path fill="#CBD0D8" d="M426.634,204.949c0,5.891-4.781,10.672-10.671,10.672c-5.891,0-10.656-4.781-10.656-10.672
		s4.766-10.655,10.656-10.655C421.853,194.294,426.634,199.059,426.634,204.949z"/>
	<path fill="#CBD0D8" d="M383.963,183.622c0,5.891-4.766,10.672-10.656,10.672s-10.656-4.781-10.656-10.672
		s4.766-10.656,10.656-10.656S383.963,177.731,383.963,183.622z"/>
	<path fill="#CBD0D8" d="M351.979,151.639c0,5.891-4.766,10.655-10.672,10.655c-5.874,0-10.655-4.765-10.655-10.655
		c0-5.89,4.781-10.671,10.655-10.671C347.214,140.968,351.979,145.749,351.979,151.639z"/>
	<path fill="#E6E9ED" d="M273.373,152.389c1.281-0.516,2.625-0.75,3.953-0.75c3.671,0,7.233,1.906,9.202,5.25
		c0,0,69.342,100.31,95.263,143.457c25.922,43.154,69.106,40.686,69.106,40.686L277.264,57.688
		c-11.695-20.328-30.835-20.328-42.53,0l-56.076,91.513c0,0,32.226,22.343,46.85,22.343
		C240.131,171.544,273.373,152.389,273.373,152.389z"/>
</g>
</svg>
