	<svg id="icon-documentation" xmlns="http://www.w3.org/2000/svg" version="1.1" viewBox="-44 -44 600 600"  >
		<path style="fill:#6D4437;" d="M432.901,453.018l-11.687,21.65v18.125c0,6.454,5.232,11.687,11.687,11.687  c6.455,0,11.687-5.232,11.687-11.687v-18.125L432.901,453.018z"/>
		<polygon style="fill:#FFD54F;" points="397.569,420.07 421.215,474.669 444.587,474.669 468.233,420.07 432.901,394.526 "/>
		<path style="fill:#FEA001;" d="M468.233,102.712h-18.781v151.158h18.781c14.933,0,27.04-12.106,27.04-27.04v-97.077  C495.273,114.818,483.167,102.712,468.233,102.712z"/>
		<g>
			<path style="fill:#6D4437;" d="M432.901,27.199L432.901,27.199c-19.513,0-35.331,15.819-35.331,35.331v92.671l35.331,19.092   l35.331-19.092v-92.67C468.233,43.017,452.414,27.199,432.901,27.199z"/>
			<polygon style="fill:#6D4437;" points="432.901,174.295 397.569,193.387 397.569,420.07 468.233,420.07 468.233,193.387  "/>
		</g>
		<rect x="397.567" y="155.199" style="fill:#FFD54F;" width="70.666" height="38.191"/>
		<path style="opacity:0.1;enable-background:new;" d="M445.936,29.692c-4.035-1.603-8.429-2.494-13.034-2.494  c-19.513,0-35.331,15.819-35.331,35.331v357.539h26.069V62.53C423.638,47.623,432.876,34.881,445.936,29.692z"/>
		<polygon style="fill:#CBCBC2;" points="369.597,89.228 369.597,89.228 369.597,501.443 16.726,501.443 16.726,7.52 287.889,7.52   287.889,7.52 310.72,66.397 "/>
		<polygon style="fill:#CCCCCC;" points="287.889,7.52 287.889,89.228 369.597,89.228 "/>
		<path d="M432.901,19.679c-23.628,0-42.851,19.223-42.851,42.851c0,0,0,357.497,0,357.539c0,0.995,0.181,2.075,0.62,2.988  l23.026,53.17v16.567c0,10.591,8.616,19.207,19.207,19.207s19.207-8.616,19.207-19.207v-16.567c0,0,23.021-53.159,23.029-53.18  c0.371-0.928,0.616-1.975,0.616-2.979V314.345c0-4.153-3.367-7.52-7.52-7.52c-4.153,0-7.52,3.367-7.52,7.52v98.204H405.09V200.907  h55.624v52.963v30.396c0,4.153,3.367,7.52,7.52,7.52c4.153,0,7.52-3.367,7.52-7.52v-23.71c15.451-3.443,27.04-17.252,27.04-33.726  v-62.353c0-4.153-3.367-7.52-7.52-7.52c-4.153,0-7.52,3.367-7.52,7.52v62.353c0,8.1-4.958,15.064-12.001,18.014V111.738  c7.042,2.95,12.001,9.913,12.001,18.013v6.953c0,4.153,3.367,7.52,7.52,7.52c4.153,0,7.52-3.367,7.52-7.52v-6.953  c0-16.473-11.589-30.283-27.04-33.726V62.531C475.752,38.903,456.53,19.679,432.901,19.679z M405.089,162.721h55.624v23.146h-55.624  V162.721z M405.089,62.531c0-15.335,12.476-27.811,27.811-27.811s27.811,12.476,27.811,27.811v40.181v44.971h-55.624L405.089,62.531  L405.089,62.531z M437.068,492.794c0,2.298-1.869,4.167-4.167,4.167c-2.298,0-4.167-1.869-4.167-4.167v-10.605h8.334V492.794z   M456.781,427.588l-17.132,39.56h-13.497l-17.132-39.56H456.781z"/>
		<path d="M377.098,88.707c-0.123-1.787-0.877-3.563-2.184-4.797c0,0-81.705-81.704-81.706-81.706C291.828,0.825,289.843,0,287.889,0  H91.105c-4.153,0-7.52,3.367-7.52,7.52s3.367,7.52,7.52,7.52h189.264v74.189c0,4.153,3.367,7.52,7.52,7.52h74.189v397.174h-43.584  c-4.153,0-7.52,3.367-7.52,7.52s3.367,7.52,7.52,7.52h51.104c1.994,0,3.907-0.792,5.317-2.203c1.411-1.411,2.203-3.323,2.203-5.317  c0,0,0-412.095,0-412.215C377.116,89.055,377.11,88.88,377.098,88.707z M351.443,81.708h-56.034V25.674L351.443,81.708z"/>
		<path d="M295.933,501.443c0-4.153-3.367-7.52-7.52-7.52H24.246V15.04h36.78c4.153,0,7.52-3.367,7.52-7.52S65.179,0,61.026,0h-44.3  c-4.153,0-7.52,3.367-7.52,7.52v493.923c0,4.153,3.367,7.52,7.52,7.52h271.688C292.566,508.963,295.933,505.596,295.933,501.443z"/>
		<path d="M66.285,89.228c0,4.153,3.367,7.52,7.52,7.52h163.977c4.153,0,7.52-3.367,7.52-7.52c0-4.153-3.367-7.52-7.52-7.52H73.805  C69.652,81.708,66.285,85.075,66.285,89.228z"/>
		<path d="M73.805,190.875h237.713c4.153,0,7.52-3.367,7.52-7.52c0-4.154-3.367-7.52-7.52-7.52H73.805c-4.153,0-7.52,3.366-7.52,7.52  C66.285,187.507,69.652,190.875,73.805,190.875z"/>
		<path d="M73.805,233.659h237.713c4.153,0,7.52-3.367,7.52-7.52s-3.367-7.52-7.52-7.52H73.805c-4.153,0-7.52,3.367-7.52,7.52  S69.652,233.659,73.805,233.659z"/>
		<path d="M73.805,276.444h237.713c4.153,0,7.52-3.366,7.52-7.52c0-4.153-3.367-7.52-7.52-7.52H73.805c-4.153,0-7.52,3.367-7.52,7.52  C66.285,273.078,69.652,276.444,73.805,276.444z"/>
		<path d="M73.805,319.23h237.713c4.153,0,7.52-3.367,7.52-7.52s-3.367-7.52-7.52-7.52H73.805c-4.153,0-7.52,3.367-7.52,7.52  S69.652,319.23,73.805,319.23z"/>
		<path d="M231.81,460.538h79.708c4.153,0,7.52-3.367,7.52-7.52s-3.367-7.52-7.52-7.52H231.81c-4.153,0-7.52,3.367-7.52,7.52  S227.657,460.538,231.81,460.538z"/>
		</svg>
