<svg xmlns="http://www.w3.org/2000/svg" xmlns:xlink="http://www.w3.org/1999/xlink" version="1.1" id="icon-clipboard" viewBox="-44 -44 600 600" xml:space="preserve">
<path style="fill:#B8703F;" d="M397.825,90.914H114.176c-17.167,0-31.083,13.917-31.083,31.083v351.414  c0,17.166,13.917,31.083,31.083,31.083h283.648c17.167,0,31.083-13.917,31.083-31.083V121.997  C428.908,104.831,414.991,90.914,397.825,90.914z"/>
<polygon style="fill:#E6E0CB;" points="370.142,135.966 256.001,111.971 141.859,135.966 115.584,135.966 115.584,469.463   396.417,469.463 396.417,135.966 "/>
<path style="fill:#CCCCCC;" d="M312.922,60.533h-16.795V47.633c0-22.161-17.965-40.126-40.126-40.126l0,0  c-22.161,0-40.126,17.965-40.126,40.126v12.901H199.08c-31.601,0-57.219,25.618-57.219,57.219v18.212h228.282v-18.212  C370.142,86.152,344.523,60.533,312.922,60.533z"/>
<circle cx="256.003" cy="48.64" r="12.52"/>
<path d="M310.666,78.996H201.335c-4.145,0-7.506,3.361-7.506,7.506s3.361,7.506,7.506,7.506h109.333  c4.145,0,7.506-3.361,7.506-7.506S314.813,78.996,310.666,78.996z"/>
<path d="M310.666,104.465H201.335c-4.145,0-7.506,3.361-7.506,7.506s3.361,7.506,7.506,7.506h109.333  c4.145,0,7.506-3.361,7.506-7.506S314.813,104.465,310.666,104.465z"/>
<path d="M232.265,191.276c-0.396-4.126-4.062-7.153-8.19-6.754c-24.764,2.381-43.369,10.355-54.601,16.61v-14.501  c0-4.145-3.361-7.506-7.506-7.506c-4.145,0-7.506,3.361-7.506,7.506v28.349c0,2.912,1.685,5.563,4.323,6.798  c1.016,0.476,2.103,0.709,3.183,0.709c1.724,0,3.431-0.593,4.807-1.739c0.212-0.177,21.635-17.713,58.739-21.28  C229.639,199.069,232.663,195.402,232.265,191.276z"/>
<path d="M347.993,187.552h-85.656c-4.145,0-7.506,3.361-7.506,7.506c0,4.145,3.361,7.506,7.506,7.506h85.656  c4.145,0,7.506-3.361,7.506-7.506C355.5,190.912,352.139,187.552,347.993,187.552z"/>
<path d="M232.265,255.634c-0.396-4.126-4.062-7.149-8.19-6.754c-24.764,2.381-43.369,10.355-54.601,16.61v-14.501  c0-4.145-3.361-7.506-7.506-7.506c-4.145,0-7.506,3.361-7.506,7.506v28.349c0,2.912,1.685,5.563,4.323,6.798  c1.016,0.476,2.103,0.709,3.183,0.709c1.724,0,3.431-0.593,4.807-1.739c0.212-0.177,21.635-17.713,58.739-21.28  C229.639,263.428,232.663,259.761,232.265,255.634z"/>
<path d="M347.993,251.911h-85.656c-4.145,0-7.506,3.361-7.506,7.506c0,4.145,3.361,7.506,7.506,7.506h85.656  c4.145,0,7.506-3.361,7.506-7.506C355.5,255.272,352.139,251.911,347.993,251.911z"/>
<path d="M161.968,307.842c-4.145,0-7.506,3.361-7.506,7.506v28.349c0,2.912,1.685,5.563,4.323,6.798  c1.016,0.476,2.103,0.709,3.183,0.709c1.724,0,3.431-0.593,4.807-1.739c0.212-0.177,21.635-17.712,58.739-21.28  c4.126-0.396,7.15-4.063,6.754-8.19c-0.396-4.126-4.062-7.153-8.19-6.754c-24.764,2.381-43.369,10.355-54.601,16.609v-14.501  C169.474,311.202,166.113,307.842,161.968,307.842z"/>
<path d="M347.993,316.27h-85.656c-4.145,0-7.506,3.361-7.506,7.506c0,4.145,3.361,7.506,7.506,7.506h85.656  c4.145,0,7.506-3.361,7.506-7.506C355.5,319.63,352.139,316.27,347.993,316.27z"/>
<path d="M397.825,83.408h-30.079c-11.463-18.23-31.745-30.38-54.824-30.38h-9.289v-5.394C303.634,21.368,282.266,0,256,0  c-26.265,0-47.633,21.368-47.633,47.633v5.394h-9.289c-23.079,0-43.362,12.15-54.824,30.38h-30.079  c-21.278,0-38.589,17.311-38.589,38.589v39.262c0,4.145,3.361,7.506,7.506,7.506s7.506-3.361,7.506-7.506v-39.262  c0-13,10.577-23.577,23.577-23.577h23.127c-1.956,6.236-2.95,12.797-2.95,19.333v10.706h-18.769c-4.145,0-7.506,3.361-7.506,7.506  v333.496c0,4.145,3.361,7.506,7.506,7.506h280.832c4.145,0,7.506-3.361,7.506-7.506v-34.496c0-4.145-3.361-7.506-7.506-7.506  c-4.145,0-7.506,3.361-7.506,7.506v26.989h-265.82V143.472h265.82v261.469c0,4.145,3.361,7.506,7.506,7.506  c4.145,0,7.506-3.361,7.506-7.506V135.966c0-4.145-3.361-7.506-7.506-7.506h-18.769v-10.706c0-6.518-1-13.111-2.95-19.333h23.127  c13,0,23.577,10.577,23.577,23.577v351.414c0,13.001-10.577,23.578-23.577,23.578H179.647c-4.145,0-7.506,3.361-7.506,7.506  c0,4.145,3.361,7.506,7.506,7.506h218.178c21.278,0,38.589-17.311,38.589-38.59V121.997  C436.414,100.72,419.102,83.408,397.825,83.408z M149.365,128.46v-10.706c0-7.745,1.84-15.459,5.337-22.368  c8.201-16.204,25.007-27.346,44.376-27.346c0,0,16.723,0,16.795,0c9.766,0,7.506-14.133,7.506-20.407  c0-17.987,14.633-32.62,32.62-32.62s32.62,14.633,32.62,32.621c0,6.369-2.771,20.406,7.506,20.406h16.795  c19.369,0,36.175,11.141,44.376,27.346c3.424,6.765,5.337,14.711,5.337,22.368v10.706L149.365,128.46L149.365,128.46z"/>
<path d="M83.093,183.778c-4.145,0-7.506,3.361-7.506,7.506V473.41c0,21.279,17.311,38.59,38.589,38.59h35.445  c4.145,0,7.506-3.361,7.506-7.506c0-4.145-3.361-7.506-7.506-7.506h-35.445c-13,0-23.577-10.577-23.577-23.578V191.284  C90.6,187.138,87.239,183.778,83.093,183.778z"/>
</svg>
