<svg xmlns="http://www.w3.org/2000/svg" xmlns:xlink="http://www.w3.org/1999/xlink" version="1.1" id="icon-flask" x="0px" y="0px" viewBox="-44 -44 600 600" xml:space="preserve">
<path style="fill:#C7B19E;" d="M210.98,58.612v174.111c0,0-72.078,119.822-105.168,203.417  c-12.978,32.786,11.119,68.339,46.379,68.339h107.661h107.661c35.261,0,59.357-35.553,46.379-68.339  c-33.09-83.596-105.168-203.417-105.168-203.417V58.612l-48.872-25.545L210.98,58.612z"/>
<path style="opacity:0.1;enable-background:new    ;" d="M145.923,436.14c33.09-83.595,105.168-203.417,105.168-203.417V58.612  l28.816-15.062l-20.056-10.483L210.98,58.612v174.111c0,0-72.078,119.822-105.168,203.417  c-12.978,32.785,11.119,68.339,46.379,68.339h40.112C157.041,504.479,132.945,468.925,145.923,436.14z"/>
<path style="fill:#6D4437;" d="M331.797,344.588H187.9c-18.148,34.165-37.068,72.24-49.777,104.344  c-2.587,6.536-0.136,11.686,1.555,14.174c1.681,2.473,5.54,6.62,12.512,6.62h215.322c6.972,0,10.832-4.148,12.512-6.62  c1.692-2.488,4.143-7.638,1.554-14.175C368.88,416.851,349.954,378.767,331.797,344.588z"/>
<path style="fill:#C7B19E;" d="M313.336,7.521H206.369c-12.213,0-22.114,9.901-22.114,22.114v6.864  c0,12.213,9.901,22.114,22.114,22.114h106.967c12.213,0,22.114-9.901,22.114-22.114v-6.864  C335.449,17.422,325.549,7.521,313.336,7.521z"/>
<path style="opacity:0.1;enable-background:new    ;" d="M224.367,36.499v-6.864c0-12.213,9.901-22.114,22.114-22.114h-40.112  c-12.213,0-22.114,9.901-22.114,22.114v6.864c0,12.213,9.901,22.114,22.114,22.114h40.112  C234.267,58.612,224.367,48.712,224.367,36.499z"/>
<g>
	<circle style="fill:#6D4437;" cx="130.954" cy="234.373" r="28.706"/>
	<circle style="fill:#6D4437;" cx="383.928" cy="147.752" r="28.706"/>
	<circle style="fill:#6D4437;" cx="117.707" cy="35.449" r="23.165"/>
</g>
<path d="M192.448,352.109h76.239c4.155,0,7.521-3.367,7.521-7.521s-3.366-7.521-7.521-7.521H187.92  c-2.782,0-5.337,1.536-6.643,3.993c-22.198,41.791-39.063,77.153-50.127,105.104c-2.821,7.126-1.972,14.842,2.327,21.169  c4.281,6.302,11.108,9.915,18.732,9.915h215.323c7.624,0,14.451-3.614,18.731-9.913c4.302-6.327,5.15-14.044,2.328-21.172  c-11.055-27.931-27.923-63.292-50.133-105.104c-1.305-2.457-3.86-3.992-6.641-3.992h-33.046c-4.155,0-7.521,3.367-7.521,7.521  s3.366,7.521,7.521,7.521h28.518c20.906,39.576,36.816,73.063,47.316,99.59c1.002,2.529,0.738,4.944-0.781,7.181  c-1.5,2.207-3.616,3.326-6.291,3.326H152.211c-2.674,0-4.79-1.119-6.291-3.326c-1.52-2.236-1.783-4.652-0.782-7.18  C155.646,425.156,171.555,391.665,192.448,352.109z"/>
<path d="M176.987,276.509c-2.037,3.62-0.754,8.206,2.865,10.242c3.493,1.965,8.206,0.754,10.244-2.866  c15.694-27.887,27.234-47.095,27.348-47.286c0.704-1.17,1.076-2.51,1.076-3.877V66.133h82.703v26.438  c0,4.154,3.366,7.521,7.521,7.521s7.521-3.367,7.521-7.521V65.989c14.98-1.466,26.724-14.131,26.724-29.49v-6.864  C342.99,13.294,329.696,0,313.356,0H258.36c-4.155,0-7.521,3.367-7.521,7.521s3.366,7.521,7.521,7.521h54.996  c8.045,0,14.593,6.546,14.593,14.593v6.864c0,8.046-6.546,14.593-14.593,14.593H206.388c-8.045,0-14.593-6.546-14.593-14.593v-6.864  c0-8.046,6.546-14.593,14.593-14.593h21.888c4.155,0,7.521-3.367,7.521-7.521S232.43,0,228.276,0h-21.888  c-16.341,0-29.635,13.294-29.635,29.635v6.864c0,15.359,11.745,28.024,26.724,29.49v164.659  C200.246,236.074,190.035,253.324,176.987,276.509z"/>
<path d="M160.498,306.303c-27.698,50.929-48.444,93.681-61.659,127.068c-7.021,17.735-4.815,37.734,5.899,53.498  C115.434,502.605,133.18,512,152.212,512h215.323c19.032,0,36.779-9.395,47.474-25.131c10.715-15.764,12.92-35.763,5.899-53.499  c-30.728-77.622-95.495-187.36-104.641-202.723V122.655c0-4.154-3.366-7.521-7.521-7.521c-4.155,0-7.521,3.367-7.521,7.521v110.069  c0,1.366,0.372,2.707,1.076,3.877c0.718,1.192,72.134,120.239,104.62,202.307c5.263,13.294,3.675,27.694-4.353,39.506  c-8.01,11.785-20.78,18.545-35.035,18.545H152.211c-14.255,0-27.023-6.759-35.034-18.544c-8.028-11.813-9.616-26.213-4.353-39.507  c12.993-32.823,33.478-75.021,60.888-125.417c1.985-3.649,0.635-8.216-3.014-10.2C167.053,301.305,162.484,302.655,160.498,306.303z  "/>
<path d="M94.75,234.375c0,19.976,16.251,36.227,36.227,36.227c19.977,0,36.228-16.251,36.228-36.227s-16.251-36.227-36.228-36.227  C111.001,198.148,94.75,214.399,94.75,234.375z M152.163,234.375c0,11.682-9.504,21.185-21.186,21.185  c-11.681,0-21.185-9.503-21.185-21.185c0-11.682,9.504-21.185,21.185-21.185C142.659,213.19,152.163,222.693,152.163,234.375z"/>
<path d="M383.943,183.981c19.976,0,36.227-16.251,36.227-36.227s-16.251-36.227-36.227-36.227  c-19.977,0-36.228,16.252-36.228,36.227C347.715,167.73,363.967,183.981,383.943,183.981z M383.943,126.569  c11.681,0,21.185,9.504,21.185,21.185c0,11.682-9.504,21.185-21.185,21.185c-11.682,0-21.186-9.503-21.186-21.185  C362.757,136.073,372.262,126.569,383.943,126.569z"/>
<path d="M117.731,66.133c16.921,0,30.688-13.766,30.688-30.687S134.652,4.758,117.731,4.758S87.044,18.526,87.044,35.446  C87.044,52.367,100.81,66.133,117.731,66.133z M117.731,19.801c8.628,0,15.647,7.019,15.647,15.646s-7.019,15.646-15.647,15.646  c-8.627,0-15.646-7.019-15.646-15.646C102.086,26.82,109.105,19.801,117.731,19.801z"/>
</svg>
