<?xml version="1.0" encoding="utf-8"?>
<!-- Generator: Adobe Illustrator 24.3.0, SVG Export Plug-In . SVG Version: 6.00 Build 0)  -->
<svg version="1.1" id="Layer_1" xmlns="http://www.w3.org/2000/svg" xmlns:xlink="http://www.w3.org/1999/xlink" x="0px" y="0px"
	 viewBox="0 0 300 300" enable-background="new 0 0 300 300" xml:space="preserve">
<g>
	<g>
		<g>
			<rect x="791.269" y="2146.512" fill="#9AE8CE" width="82.715" height="12.171"/>
		</g>
		<g>
			<path fill="#9AE8CE" d="M902.591,2110.684H729.346v11.338c0,4.893,2.575,8.66,7.436,8.66h165.809V2110.684z"/>
		</g>
		<g>
			<rect x="824.083" y="2130.682" fill="#F4F4F4" width="17.092" height="15.83"/>
		</g>
		<g>
			<path fill="#F4F4F4" d="M835.427,2120.989c0,1.544-1.252,2.802-2.802,2.802c-1.546,0-2.798-1.258-2.798-2.802
				c0-1.544,1.252-2.802,2.798-2.802C834.175,2118.186,835.427,2119.444,835.427,2120.989z"/>
		</g>
		<g>
			<path fill="#AA6148" d="M925.805,1963.614H739.447c-5.578,0-10.101,4.524-10.101,10.102v11.767h206.561v-11.767
				C935.907,1968.137,931.383,1963.614,925.805,1963.614z"/>
		</g>
		<g>
			<path fill="#AEF4DB" d="M742.7,2122.022v-11.338h-13.228v11.338c0,4.893,2.575,8.66,7.436,8.66h13.228
				C745.274,2130.682,742.7,2126.915,742.7,2122.022z"/>
		</g>
		<g>
			<path fill="#BC715C" d="M752.801,1963.614h-13.228c-5.578,0-10.101,4.524-10.101,10.102v11.767H742.7v-11.767
				C742.7,1968.137,747.223,1963.614,752.801,1963.614z"/>
		</g>
		<g>
			<path fill="#F4F4F4" d="M918.985,1974.548c0,1.698-1.373,3.071-3.069,3.071c-1.696,0-3.069-1.373-3.069-3.071
				c0-1.692,1.373-3.068,3.069-3.068C917.612,1971.48,918.985,1972.856,918.985,1974.548z"/>
		</g>
		<g>
			<path fill="#F4F4F4" d="M906.167,1974.548c0,1.698-1.373,3.071-3.07,3.071c-1.696,0-3.069-1.373-3.069-3.071
				c0-1.692,1.373-3.068,3.069-3.068C904.794,1971.48,906.167,1972.856,906.167,1974.548z"/>
		</g>
		<g>
			<path fill="#F4F4F4" d="M892.921,1974.548c0,1.698-1.375,3.071-3.069,3.071c-1.696,0-3.071-1.373-3.071-3.071
				c0-1.692,1.375-3.068,3.071-3.068C891.546,1971.48,892.921,1972.856,892.921,1974.548z"/>
		</g>
		<g>
			<rect x="902.59" y="2076.29" fill="#F4F4F4" width="66.634" height="84.708"/>
		</g>
		<g>
			<path fill="#9AE8CE" d="M902.591,2167.656c0,5.04,4.085,9.124,9.125,9.124H960.1c5.037,0,9.124-4.084,9.124-9.124v-6.658h-66.633
				V2167.656z"/>
		</g>
		<g>
			<path fill="#9AE8CE" d="M969.224,2072.091c0-5.037-4.086-9.124-9.124-9.124h-48.383c-5.04,0-9.125,4.087-9.125,9.124v4.199
				h66.633V2072.091z"/>
		</g>
		<g>
			<path fill="#AEF4DB" d="M912.846,2167.656v-6.658h-10.255v6.658c0,5.04,4.085,9.124,9.125,9.124h10.255
				C916.931,2176.78,912.846,2172.697,912.846,2167.656z"/>
		</g>
		<g>
			<path fill="#AEF4DB" d="M921.971,2062.967h-10.255c-5.04,0-9.125,4.087-9.125,9.124v4.199h10.255v-4.199
				C912.846,2067.054,916.931,2062.967,921.971,2062.967z"/>
		</g>
		<g>
			<path fill="#F4F4F4" d="M938.22,2168.888c0,1.278-1.034,2.312-2.312,2.312c-1.277,0-2.312-1.033-2.312-2.312
				c0-1.276,1.035-2.309,2.312-2.309C937.187,2166.579,938.22,2167.612,938.22,2168.888z"/>
		</g>
		<g>
			<path fill="#F4F4F4" d="M911.715,2062.967h24.192v-77.485H729.346v125.202H902.59v-34.394v-4.199
				C902.59,2067.054,906.675,2062.967,911.715,2062.967z"/>
		</g>
		<g>
			<path fill="#FFDA88" d="M872.538,2039.145c0,22.039-17.869,39.909-39.911,39.909s-39.911-17.87-39.911-39.909
				c0-22.042,17.869-39.912,39.911-39.912S872.538,2017.103,872.538,2039.145z"/>
		</g>
		<g>
			<path fill="#FFE2A9" d="M806.96,2039.145c0-19.606,14.151-35.878,32.79-39.242c-2.315-0.419-4.688-0.67-7.122-0.67
				c-22.042,0-39.911,17.87-39.911,39.912c0,22.039,17.869,39.909,39.911,39.909c2.435,0,4.807-0.254,7.122-0.67
				C821.111,2075.02,806.96,2058.751,806.96,2039.145z"/>
		</g>
		<g>
			<g>
				<path fill="#AA6148" d="M845.469,2051.936c-9.933,9.939-23.687,12.295-30.712,5.273c-7.019-7.028-4.662-20.775,5.277-30.711
					c9.933-9.936,23.681-12.298,30.708-5.271C857.767,2028.252,855.408,2042.003,845.469,2051.936z"/>
			</g>
			<g>
				<path fill="#BC715C" d="M825.101,2031.149c8.569-8.569,19.961-11.486,27.443-7.63c-0.526-0.844-1.119-1.651-1.836-2.368
					c-7.028-7.024-20.775-4.665-30.709,5.274c-9.939,9.933-12.295,23.684-5.276,30.708c0.966,0.968,2.07,1.742,3.266,2.356
					C813.391,2052.045,816.178,2040.066,825.101,2031.149z"/>
			</g>
			<g>
				<g>
					<path fill="#BC715C" d="M817.595,2058.403c-2.288,0-4.175-1.828-4.246-4.14c-0.071-2.362,1.769-4.329,4.119-4.405l0.546-0.018
						c6.945-0.207,10.113-0.301,11.394-11.832c1.719-15.522,13.128-18.51,18.921-17.902c2.339,0.237,4.039,2.336,3.803,4.683
						c-0.237,2.335-2.297,4.036-4.624,3.821c-1.417-0.109-8.495-0.106-9.655,10.346c-2.097,18.903-12.207,19.205-19.588,19.429
						l-0.537,0.018C817.684,2058.403,817.64,2058.403,817.595,2058.403z"/>
				</g>
			</g>
		</g>
		<g>
			<rect x="814.97" y="2090.006" fill="#AA6148" width="35.527" height="9.449"/>
		</g>
		<g>
			<rect x="918.145" y="2138.595" fill="#AA6148" width="35.527" height="9.449"/>
		</g>
		<g>
			<rect x="902.59" y="2076.29" fill="#F9F9F9" width="10.256" height="84.708"/>
		</g>
		<g>
			<rect x="729.346" y="1985.482" fill="#F9F9F9" width="13.296" height="125.201"/>
		</g>
		<g>
			<rect x="824.083" y="2130.682" fill="#F9F9F9" width="8.651" height="15.83"/>
		</g>
		<g>
			<rect x="791.269" y="2146.512" fill="#AEF4DB" width="8.651" height="12.171"/>
		</g>
	</g>
	<g>
		<g>
			<path fill="#161616" d="M873.984,2163.218h-82.715c-2.505,0-4.535-2.031-4.535-4.535v-12.171c0-2.504,2.03-4.535,4.535-4.535
				h82.715c2.505,0,4.535,2.031,4.535,4.535v12.171C878.519,2161.187,876.489,2163.218,873.984,2163.218z M795.804,2154.148h73.644
				v-3.101h-73.644V2154.148z"/>
		</g>
		<g>
			<path fill="#161616" d="M841.174,2151.047h-17.092c-2.505,0-4.535-2.031-4.535-4.535v-15.83c0-2.504,2.03-4.535,4.535-4.535
				h17.092c2.505,0,4.535,2.031,4.535,4.535v15.83C845.71,2149.016,843.68,2151.047,841.174,2151.047z M828.618,2141.976h8.021
				v-6.759h-8.021V2141.976z"/>
		</g>
		<g>
			<path fill="#161616" d="M835.427,2120.989c0,1.544-1.252,2.802-2.802,2.802c-1.546,0-2.798-1.258-2.798-2.802
				c0-1.544,1.252-2.802,2.798-2.802C834.175,2118.186,835.427,2119.444,835.427,2120.989z"/>
		</g>
		<g>
			<path fill="#161616" d="M935.907,1990.017H729.346c-2.505,0-4.535-2.031-4.535-4.535v-11.767c0-8.07,6.565-14.637,14.637-14.637
				h186.358c8.071,0,14.637,6.567,14.637,14.637v11.767C940.442,1987.986,938.412,1990.017,935.907,1990.017z M733.881,1980.947
				h197.49v-7.231c0-3.068-2.497-5.566-5.566-5.566H739.447c-3.069,0-5.566,2.498-5.566,5.566V1980.947z"/>
		</g>
		<g>
			<path fill="#161616" d="M918.985,1974.548c0,1.698-1.373,3.071-3.069,3.071c-1.696,0-3.069-1.373-3.069-3.071
				c0-1.692,1.373-3.068,3.069-3.068C917.612,1971.48,918.985,1972.856,918.985,1974.548z"/>
		</g>
		<g>
			<path fill="#161616" d="M906.167,1974.548c0,1.698-1.373,3.071-3.07,3.071c-1.696,0-3.069-1.373-3.069-3.071
				c0-1.692,1.373-3.068,3.069-3.068C904.794,1971.48,906.167,1972.856,906.167,1974.548z"/>
		</g>
		<g>
			<path fill="#161616" d="M892.921,1974.548c0,1.698-1.375,3.071-3.069,3.071c-1.696,0-3.071-1.373-3.071-3.071
				c0-1.692,1.375-3.068,3.071-3.068C891.546,1971.48,892.921,1972.856,892.921,1974.548z"/>
		</g>
		<g>
			<path fill="#161616" d="M969.222,2165.533H902.59c-2.505,0-4.535-2.031-4.535-4.535v-84.708c0-2.504,2.03-4.535,4.535-4.535
				h66.633c2.505,0,4.535,2.031,4.535,4.535v43.931c0,2.504-2.03,4.535-4.535,4.535c-2.505,0-4.535-2.031-4.535-4.535v-39.395
				h-57.562v75.637h57.562v-15.319c0-2.504,2.03-4.535,4.535-4.535c2.505,0,4.535,2.031,4.535,4.535v19.854
				C973.758,2163.502,971.728,2165.533,969.222,2165.533z"/>
		</g>
		<g>
			<path fill="#161616" d="M960.099,2181.316h-48.382c-7.532,0-13.661-6.127-13.661-13.659v-6.658c0-2.504,2.03-4.535,4.535-4.535
				h66.633c2.505,0,4.535,2.031,4.535,4.535v6.658C973.759,2175.189,967.631,2181.316,960.099,2181.316z M907.127,2165.533v2.123
				c0,2.531,2.06,4.589,4.59,4.589h48.382c2.531,0,4.59-2.058,4.59-4.589v-2.123H907.127z"/>
		</g>
		<g>
			<path fill="#161616" d="M969.224,2080.825h-66.633c-2.505,0-4.535-2.031-4.535-4.535v-4.199c0-7.532,6.128-13.659,13.661-13.659
				h48.382c7.532,0,13.661,6.127,13.661,13.659v4.199C973.759,2078.794,971.729,2080.825,969.224,2080.825z M907.138,2071.755
				h57.538c-0.173-2.374-2.16-4.252-4.578-4.252h-48.382C909.298,2067.503,907.311,2069.381,907.138,2071.755z"/>
		</g>
		<g>
			<path fill="#161616" d="M938.22,2168.888c0,1.278-1.035,2.312-2.312,2.312c-1.277,0-2.312-1.033-2.312-2.312
				c0-1.276,1.035-2.309,2.312-2.309C937.185,2166.579,938.22,2167.612,938.22,2168.888z"/>
		</g>
		<g>
			<path fill="#161616" d="M902.59,2115.219H729.346c-2.505,0-4.535-2.031-4.535-4.535v-86.462c0-2.504,2.03-4.535,4.535-4.535
				c2.505,0,4.535,2.031,4.535,4.535v81.926h164.173v-34.057c0-7.532,6.128-13.659,13.661-13.659h19.656v-68.415h-197.49v13.281
				c0,2.504-2.03,4.535-4.535,4.535c-2.505,0-4.535-2.031-4.535-4.535v-17.817c0-2.504,2.03-4.535,4.535-4.535h206.561
				c2.505,0,4.535,2.031,4.535,4.535v77.485c0,2.504-2.03,4.535-4.535,4.535h-24.192c-2.531,0-4.59,2.058-4.59,4.589v38.592
				C907.125,2113.187,905.095,2115.219,902.59,2115.219z"/>
		</g>
		<g>
			<path fill="#161616" d="M902.591,2135.218H736.782c-7.048,0-11.972-5.427-11.972-13.196v-11.339c0-2.504,2.03-4.535,4.535-4.535
				h173.245c2.505,0,4.535,2.031,4.535,4.535v19.999C907.127,2133.186,905.096,2135.218,902.591,2135.218z M733.881,2115.219v6.803
				c0,2.737,0.976,4.125,2.901,4.125h161.274v-10.928H733.881z"/>
		</g>
		<g>
			<path fill="#161616" d="M832.628,2083.589c-24.508,0-44.446-19.937-44.446-44.444c0-24.508,19.938-44.447,44.446-44.447
				s44.446,19.94,44.446,44.447C877.074,2063.652,857.135,2083.589,832.628,2083.589z M832.628,2003.768
				c-19.506,0-35.375,15.871-35.375,35.377c0,19.506,15.869,35.374,35.375,35.374c19.506,0,35.375-15.868,35.375-35.374
				C868.003,2019.639,852.133,2003.768,832.628,2003.768z"/>
		</g>
		<g>
			<g>
				<path fill="#161616" d="M825.302,2065.77c-5.321,0-10.215-1.769-13.875-5.427c-8.928-8.935-6.61-25.243,5.275-37.127
					c11.889-11.882,28.191-14.203,37.123-5.271c4.469,4.467,6.239,10.946,4.987,18.239c-1.153,6.717-4.797,13.423-10.261,18.886
					C841.536,2062.087,832.975,2065.77,825.302,2065.77z M840.017,2021.641c-5.312,0-11.75,2.838-16.901,7.987
					c-8.012,8.014-10.428,19.142-5.274,24.301c5.164,5.161,16.286,2.74,24.295-5.273c0.001,0,0.001,0,0.001,0
					c4.149-4.149,6.896-9.124,7.735-14.008c0.74-4.308-0.134-7.964-2.461-10.29C845.571,2022.518,842.968,2021.641,840.017,2021.641
					z"/>
			</g>
			<g>
				<path fill="#161616" d="M816.565,2059.002c-2.439,0-4.454-1.94-4.531-4.394c-0.077-2.504,1.89-4.597,4.394-4.674l1.329-0.035
					c7.147-0.174,10.106-0.245,11.412-11.965c0.741-6.658,3.245-11.64,7.439-14.808c5.755-4.344,12.314-3.387,13.044-3.275
					c2.47,0.416,4.137,2.755,3.722,5.223c-0.413,2.457-2.722,4.125-5.179,3.729c-0.158-0.018-3.542-0.434-6.189,1.612
					c-2.086,1.615-3.372,4.482-3.822,8.522c-2.183,19.591-12.602,19.845-20.208,20.028l-1.267,0.032
					C816.661,2059.002,816.612,2059.002,816.565,2059.002z"/>
			</g>
		</g>
		<g>
			<rect x="814.97" y="2090.006" fill="#161616" width="35.527" height="9.449"/>
		</g>
		<g>
			<rect x="918.145" y="2138.595" fill="#161616" width="35.527" height="9.449"/>
		</g>
	</g>
</g>
<g>
	<g>
		<g>
			<rect x="91.984" y="226.315" fill="#9AE8CE" width="82.715" height="12.171"/>
		</g>
		<g>
			<path fill="#9AE8CE" d="M203.306,190.486H30.061v11.339c0,4.893,2.575,8.66,7.437,8.66h165.809V190.486z"/>
		</g>
		<g>
			<rect x="124.798" y="210.485" fill="#F4F4F4" width="17.092" height="15.83"/>
		</g>
		<g>
			<path fill="#F4F4F4" d="M136.142,200.791c0,1.544-1.252,2.802-2.802,2.802c-1.546,0-2.798-1.258-2.798-2.802
				c0-1.544,1.252-2.802,2.798-2.802C134.89,197.989,136.142,199.247,136.142,200.791z"/>
		</g>
		<g>
			<path fill="#AA6148" d="M226.521,43.417H40.162c-5.578,0-10.101,4.523-10.101,10.101v11.767h206.561V53.518
				C236.622,47.94,232.098,43.417,226.521,43.417z"/>
		</g>
		<g>
			<path fill="#AEF4DB" d="M43.415,201.825v-11.339H30.186v11.339c0,4.893,2.575,8.66,7.437,8.66h13.228
				C45.99,210.485,43.415,206.717,43.415,201.825z"/>
		</g>
		<g>
			<path fill="#BC715C" d="M53.516,43.417H40.288c-5.578,0-10.101,4.523-10.101,10.101v11.767h13.228V53.518
				C43.415,47.94,47.938,43.417,53.516,43.417z"/>
		</g>
		<g>
			<path fill="#F4F4F4" d="M219.7,54.351c0,1.698-1.373,3.071-3.069,3.071c-1.696,0-3.069-1.373-3.069-3.071
				c0-1.692,1.373-3.068,3.069-3.068C218.327,51.283,219.7,52.659,219.7,54.351z"/>
		</g>
		<g>
			<path fill="#F4F4F4" d="M206.882,54.351c0,1.698-1.373,3.071-3.07,3.071c-1.696,0-3.069-1.373-3.069-3.071
				c0-1.692,1.373-3.068,3.069-3.068C205.509,51.283,206.882,52.659,206.882,54.351z"/>
		</g>
		<g>
			<path fill="#F4F4F4" d="M193.636,54.351c0,1.698-1.374,3.071-3.069,3.071c-1.697,0-3.071-1.373-3.071-3.071
				c0-1.692,1.375-3.068,3.071-3.068C192.262,51.283,193.636,52.659,193.636,54.351z"/>
		</g>
		<g>
			<rect x="203.305" y="156.093" fill="#F4F4F4" width="66.634" height="84.708"/>
		</g>
		<g>
			<path fill="#9AE8CE" d="M203.306,247.459c0,5.04,4.085,9.124,9.126,9.124h48.383c5.037,0,9.124-4.084,9.124-9.124v-6.658h-66.633
				V247.459z"/>
		</g>
		<g>
			<path fill="#9AE8CE" d="M269.939,151.894c0-5.037-4.086-9.124-9.124-9.124h-48.383c-5.04,0-9.126,4.087-9.126,9.124v4.199h66.633
				V151.894z"/>
		</g>
		<g>
			<path fill="#AEF4DB" d="M213.561,247.459v-6.658h-10.255v6.658c0,5.04,4.085,9.124,9.126,9.124h10.255
				C217.646,256.583,213.561,252.499,213.561,247.459z"/>
		</g>
		<g>
			<path fill="#AEF4DB" d="M222.686,142.77h-10.255c-5.04,0-9.126,4.087-9.126,9.124v4.199h10.255v-4.199
				C213.561,146.857,217.646,142.77,222.686,142.77z"/>
		</g>
		<g>
			<path fill="#F4F4F4" d="M238.935,248.691c0,1.278-1.033,2.312-2.312,2.312c-1.277,0-2.312-1.033-2.312-2.312
				c0-1.276,1.035-2.309,2.312-2.309C237.902,246.382,238.935,247.415,238.935,248.691z"/>
		</g>
		<g>
			<path fill="#F4F4F4" d="M212.43,142.77h24.192V65.285H30.061v125.202h173.244v-34.393v-4.199
				C203.305,146.857,207.39,142.77,212.43,142.77z"/>
		</g>
		<g>
			<path fill="#FFDA88" d="M173.253,118.948c0,22.039-17.868,39.909-39.911,39.909c-22.042,0-39.91-17.87-39.91-39.909
				c0-22.042,17.868-39.912,39.91-39.912C155.385,79.036,173.253,96.906,173.253,118.948z"/>
		</g>
		<g>
			<path fill="#FFE2A9" d="M107.675,118.948c0-19.606,14.151-35.879,32.79-39.242c-2.315-0.419-4.688-0.67-7.122-0.67
				c-22.042,0-39.91,17.87-39.91,39.912c0,22.039,17.868,39.909,39.91,39.909c2.435,0,4.807-0.254,7.122-0.67
				C121.826,154.823,107.675,138.554,107.675,118.948z"/>
		</g>
		<g>
			<g>
				<path fill="#AA6148" d="M146.184,131.739c-9.933,9.939-23.687,12.295-30.712,5.273c-7.019-7.028-4.662-20.775,5.277-30.711
					c9.933-9.936,23.681-12.298,30.708-5.271C158.482,108.055,156.123,121.806,146.184,131.739z"/>
			</g>
			<g>
				<path fill="#BC715C" d="M125.816,110.952c8.569-8.569,19.961-11.486,27.443-7.63c-0.525-0.844-1.119-1.651-1.837-2.368
					c-7.027-7.024-20.775-4.665-30.709,5.274c-9.939,9.933-12.295,23.684-5.276,30.708c0.966,0.968,2.07,1.742,3.266,2.356
					C114.106,131.848,116.893,119.869,125.816,110.952z"/>
			</g>
			<g>
				<g>
					<path fill="#BC715C" d="M118.311,138.206c-2.288,0-4.175-1.828-4.246-4.14c-0.071-2.362,1.769-4.329,4.119-4.405l0.546-0.018
						c6.945-0.207,10.113-0.301,11.394-11.832c1.719-15.522,13.128-18.51,18.921-17.902c2.339,0.236,4.04,2.336,3.803,4.683
						c-0.236,2.335-2.297,4.036-4.624,3.821c-1.417-0.109-8.495-0.106-9.656,10.346c-2.097,18.903-12.207,19.205-19.588,19.429
						l-0.537,0.018C118.399,138.206,118.355,138.206,118.311,138.206z"/>
				</g>
			</g>
		</g>
		<g>
			<rect x="115.685" y="169.808" fill="#AA6148" width="35.527" height="9.449"/>
		</g>
		<g>
			<rect x="218.86" y="218.398" fill="#AA6148" width="35.527" height="9.449"/>
		</g>
		<g>
			<rect x="203.305" y="156.093" fill="#F9F9F9" width="10.256" height="84.708"/>
		</g>
		<g>
			<rect x="30.061" y="65.285" fill="#F9F9F9" width="13.296" height="125.201"/>
		</g>
		<g>
			<rect x="124.798" y="210.485" fill="#F9F9F9" width="8.651" height="15.83"/>
		</g>
		<g>
			<rect x="91.984" y="226.315" fill="#AEF4DB" width="8.651" height="12.171"/>
		</g>
	</g>
	<g>
		<g>
			<path fill="#161616" d="M174.699,243.021H91.984c-2.505,0-4.535-2.031-4.535-4.535v-12.171c0-2.504,2.03-4.535,4.535-4.535
				h82.715c2.505,0,4.535,2.032,4.535,4.535v12.171C179.234,240.99,177.204,243.021,174.699,243.021z M96.519,233.951h73.644v-3.1
				H96.519V233.951z"/>
		</g>
		<g>
			<path fill="#161616" d="M141.89,230.85h-17.092c-2.505,0-4.535-2.031-4.535-4.535v-15.83c0-2.504,2.03-4.535,4.535-4.535h17.092
				c2.505,0,4.535,2.031,4.535,4.535v15.83C146.425,228.819,144.395,230.85,141.89,230.85z M129.333,221.779h8.021v-6.759h-8.021
				V221.779z"/>
		</g>
		<g>
			<path fill="#161616" d="M136.142,200.791c0,1.544-1.252,2.802-2.802,2.802c-1.546,0-2.798-1.258-2.798-2.802
				c0-1.544,1.252-2.802,2.798-2.802C134.89,197.989,136.142,199.247,136.142,200.791z"/>
		</g>
		<g>
			<path fill="#161616" d="M236.622,69.82H30.061c-2.505,0-4.535-2.032-4.535-4.535V53.518c0-8.07,6.565-14.637,14.637-14.637
				h186.358c8.071,0,14.637,6.567,14.637,14.637v11.767C241.157,67.789,239.127,69.82,236.622,69.82z M34.596,60.749h197.49v-7.231
				c0-3.068-2.497-5.566-5.566-5.566H40.162c-3.069,0-5.566,2.498-5.566,5.566V60.749z"/>
		</g>
		<g>
			<path fill="#161616" d="M219.7,54.351c0,1.698-1.373,3.071-3.069,3.071c-1.696,0-3.069-1.373-3.069-3.071
				c0-1.692,1.373-3.068,3.069-3.068C218.327,51.283,219.7,52.659,219.7,54.351z"/>
		</g>
		<g>
			<path fill="#161616" d="M206.882,54.351c0,1.698-1.373,3.071-3.07,3.071c-1.696,0-3.069-1.373-3.069-3.071
				c0-1.692,1.373-3.068,3.069-3.068C205.509,51.283,206.882,52.659,206.882,54.351z"/>
		</g>
		<g>
			<path fill="#161616" d="M193.636,54.351c0,1.698-1.374,3.071-3.069,3.071c-1.697,0-3.071-1.373-3.071-3.071
				c0-1.692,1.375-3.068,3.071-3.068C192.262,51.283,193.636,52.659,193.636,54.351z"/>
		</g>
		<g>
			<path fill="#161616" d="M269.938,245.336h-66.633c-2.505,0-4.535-2.031-4.535-4.535v-84.708c0-2.504,2.03-4.535,4.535-4.535
				h66.633c2.505,0,4.535,2.031,4.535,4.535v43.931c0,2.504-2.03,4.535-4.535,4.535s-4.535-2.032-4.535-4.535v-39.395H207.84v75.637
				h57.562v-15.319c0-2.504,2.03-4.535,4.535-4.535s4.535,2.031,4.535,4.535v19.854
				C274.473,243.305,272.443,245.336,269.938,245.336z"/>
		</g>
		<g>
			<path fill="#161616" d="M260.814,261.118h-48.382c-7.532,0-13.661-6.127-13.661-13.659v-6.658c0-2.504,2.03-4.535,4.535-4.535
				h66.633c2.505,0,4.535,2.032,4.535,4.535v6.658C274.474,254.992,268.346,261.118,260.814,261.118z M207.842,245.336v2.123
				c0,2.531,2.06,4.589,4.59,4.589h48.382c2.53,0,4.59-2.058,4.59-4.589v-2.123H207.842z"/>
		</g>
		<g>
			<path fill="#161616" d="M269.939,160.628h-66.633c-2.505,0-4.535-2.031-4.535-4.535v-4.199c0-7.532,6.128-13.659,13.661-13.659
				h48.382c7.532,0,13.661,6.127,13.661,13.659v4.199C274.474,158.597,272.444,160.628,269.939,160.628z M207.854,151.558h57.538
				c-0.173-2.374-2.16-4.252-4.578-4.252h-48.382C210.013,147.306,208.026,149.184,207.854,151.558z"/>
		</g>
		<g>
			<path fill="#161616" d="M238.935,248.691c0,1.278-1.035,2.312-2.312,2.312c-1.277,0-2.312-1.033-2.312-2.312
				c0-1.276,1.035-2.309,2.312-2.309C237.901,246.382,238.935,247.415,238.935,248.691z"/>
		</g>
		<g>
			<path fill="#161616" d="M203.305,195.022H30.061c-2.505,0-4.535-2.031-4.535-4.535v-86.462c0-2.504,2.03-4.535,4.535-4.535
				s4.535,2.031,4.535,4.535v81.926h164.173v-34.057c0-7.532,6.128-13.659,13.661-13.659h19.656V69.82H34.596v13.281
				c0,2.504-2.03,4.535-4.535,4.535s-4.535-2.032-4.535-4.535V65.285c0-2.504,2.03-4.535,4.535-4.535h206.561
				c2.505,0,4.535,2.031,4.535,4.535v77.485c0,2.504-2.03,4.535-4.535,4.535H212.43c-2.531,0-4.59,2.058-4.59,4.589v38.592
				C207.84,192.99,205.81,195.022,203.305,195.022z"/>
		</g>
		<g>
			<path fill="#161616" d="M203.306,215.02H37.497c-7.048,0-11.972-5.427-11.972-13.196v-11.339c0-2.504,2.03-4.535,4.535-4.535
				h173.245c2.505,0,4.535,2.032,4.535,4.535v19.999C207.842,212.989,205.812,215.02,203.306,215.02z M34.596,195.022v6.803
				c0,2.737,0.976,4.125,2.901,4.125h161.274v-10.928H34.596z"/>
		</g>
		<g>
			<path fill="#161616" d="M133.343,163.392c-24.508,0-44.446-19.937-44.446-44.445c0-24.508,19.938-44.447,44.446-44.447
				c24.508,0,44.446,19.94,44.446,44.447C177.789,143.455,157.851,163.392,133.343,163.392z M133.343,83.571
				c-19.506,0-35.375,15.871-35.375,35.377c0,19.506,15.869,35.374,35.375,35.374c19.506,0,35.375-15.868,35.375-35.374
				C168.718,99.442,152.849,83.571,133.343,83.571z"/>
		</g>
		<g>
			<g>
				<path fill="#161616" d="M126.017,145.572c-5.321,0-10.215-1.769-13.875-5.427c-8.928-8.935-6.61-25.243,5.275-37.128
					c11.889-11.882,28.191-14.203,37.123-5.271c4.469,4.467,6.239,10.946,4.987,18.239c-1.153,6.717-4.797,13.423-10.261,18.886
					C142.251,141.89,133.69,145.572,126.017,145.572z M140.732,101.444c-5.312,0-11.75,2.838-16.901,7.987
					c-8.012,8.014-10.428,19.143-5.274,24.301c5.164,5.161,16.286,2.74,24.295-5.273c0.001,0,0.001,0,0.001,0
					c4.149-4.149,6.896-9.124,7.735-14.008c0.74-4.308-0.134-7.964-2.461-10.29C146.286,102.321,143.683,101.444,140.732,101.444z"
					/>
			</g>
			<g>
				<path fill="#161616" d="M117.28,138.805c-2.439,0-4.454-1.94-4.531-4.394c-0.077-2.504,1.89-4.597,4.394-4.674l1.329-0.035
					c7.147-0.174,10.106-0.245,11.412-11.965c0.741-6.658,3.245-11.64,7.439-14.808c5.755-4.343,12.314-3.387,13.044-3.275
					c2.47,0.416,4.137,2.755,3.722,5.223c-0.413,2.457-2.722,4.125-5.179,3.729c-0.158-0.018-3.542-0.434-6.189,1.612
					c-2.086,1.615-3.372,4.482-3.822,8.522c-2.184,19.591-12.602,19.845-20.208,20.028l-1.267,0.033
					C117.376,138.805,117.327,138.805,117.28,138.805z"/>
			</g>
		</g>
		<g>
			<rect x="115.685" y="169.808" fill="#161616" width="35.527" height="9.449"/>
		</g>
		<g>
			<rect x="218.86" y="218.398" fill="#161616" width="35.527" height="9.449"/>
		</g>
	</g>
</g>
</svg>
