<?xml version="1.0" encoding="utf-8"?>
<!-- Generator: Adobe Illustrator 25.0.1, SVG Export Plug-In . SVG Version: 6.00 Build 0)  -->
<svg version="1.1" id="mountain-sign" xmlns="http://www.w3.org/2000/svg" xmlns:xlink="http://www.w3.org/1999/xlink" x="0px"
	 y="0px" viewBox="0 0 300 300" style="enable-background:new 0 0 300 300;" xml:space="preserve">
<style type="text/css">
	.st0{fill:#FFDA88;}
	.st1{fill:#FFE2A9;}
	.st2{fill:#AA6148;}
	.st3{fill:#161616;}
	.st4{fill:#9B5C5C;}
	.st5{fill:#CBD0D8;}
	.st6{fill:#E6E9ED;}
</style>
<g id="sign-base">
	<g>
		<path class="st0" d="M257.1,176.4c0,52.3-42.4,94.8-94.8,94.8c-52.4,0-94.8-42.4-94.8-94.8c0-52.3,42.4-94.8,94.8-94.8
			C214.7,81.7,257.1,124.1,257.1,176.4z"/>
	</g>
	<g>
		<path class="st1" d="M86,176.4c0-49.2,37.5-89.7,85.5-94.3c-3-0.3-6.1-0.5-9.3-0.5c-52.4,0-94.8,42.4-94.8,94.8
			c0,52.3,42.4,94.8,94.8,94.8c3.1,0,6.2-0.2,9.3-0.5C123.6,266.1,86,225.7,86,176.4z"/>
	</g>
	<g>
		<path class="st0" d="M59.5,70.9c0,8.4-6.8,15.2-15.2,15.2l0,0c-8.4,0-15.2-6.8-15.2-15.2V44.6c0-8.4,6.8-15.2,15.2-15.2l0,0
			c8.4,0,15.2,6.8,15.2,15.2V70.9z"/>
	</g>
	<g>
		<path class="st1" d="M39.1,70.9V44.6c0-6.6,4.3-12.2,10.2-14.3c-1.6-0.6-3.3-0.9-5-0.9c-8.4,0-15.2,6.8-15.2,15.2v26.3
			c0,8.4,6.8,15.2,15.2,15.2c1.8,0,3.5-0.4,5-0.9C43.4,83.1,39.1,77.5,39.1,70.9z"/>
	</g>
	<g>
		<rect x="59.5" y="49" class="st2" width="40.4" height="17.5"/>
	</g>
	<g>
		<rect x="224.7" y="49" class="st2" width="46.3" height="17.5"/>
	</g>
	<g>
		<rect x="118.2" y="49" class="st2" width="88.3" height="17.5"/>
	</g>
	<g>
		<path class="st0" d="M118.2,92.6V48.6c0-5-4.1-9.1-9.1-9.1c-5,0-9.1,4.1-9.1,9.1v56.5C105.5,100.3,111.6,96,118.2,92.6z"/>
	</g>
	<g>
		<path class="st1" d="M109,48.6c0-3.4,1.8-6.3,4.6-7.9c-1.3-0.8-2.9-1.3-4.6-1.3c-5,0-9.1,4.1-9.1,9.1v56.5
			c2.9-2.5,5.9-4.9,9.1-7.1L109,48.6L109,48.6z"/>
	</g>
	<g>
		<path class="st0" d="M224.7,105.1V48.6c0-5-4.1-9.1-9.1-9.1c-5,0-9.1,4.1-9.1,9.1v43.9C213,96,219.1,100.3,224.7,105.1z"/>
	</g>
</g>
<g id="sign-aro">
	<g>
		<path class="st3" d="M44.3,90.6c-10.9,0-19.7-8.9-19.7-19.7V44.6c0-10.9,8.9-19.7,19.7-19.7S64,33.7,64,44.6v26.3
			C64,81.7,55.2,90.6,44.3,90.6z M44.3,33.9c-5.9,0-10.7,4.8-10.7,10.7v26.3c0,5.9,4.8,10.7,10.7,10.7s10.7-4.8,10.7-10.7V44.6
			C54.9,38.7,50.1,33.9,44.3,33.9z"/>
	</g>
	<g>
		<path class="st3" d="M99.9,71H59.5c-2.5,0-4.5-2-4.5-4.5V49c0-2.5,2-4.5,4.5-4.5h40.4c2.5,0,4.5,2,4.5,4.5v17.5
			C104.4,69,102.4,71,99.9,71z M64,61.9h31.4v-8.4H64V61.9z"/>
	</g>
	<g>
		<path class="st3" d="M270.9,71h-46.3c-2.5,0-4.5-2-4.5-4.5V49c0-2.5,2-4.5,4.5-4.5h12.7c2.5,0,4.5,2,4.5,4.5s-2,4.5-4.5,4.5h-8.1
			v8.4h37.2v-8.4h-8.1c-2.5,0-4.5-2-4.5-4.5s2-4.5,4.5-4.5h12.7c2.5,0,4.5,2,4.5,4.5v17.5C275.5,69,273.4,71,270.9,71z"/>
	</g>
	<g>
		<path class="st3" d="M206.4,71h-88.3c-2.5,0-4.5-2-4.5-4.5V49c0-2.5,2-4.5,4.5-4.5h88.3c2.5,0,4.5,2,4.5,4.5v17.5
			C211,69,208.9,71,206.4,71z M122.7,61.9h79.2v-8.4h-79.2C122.7,53.5,122.7,61.9,122.7,61.9z"/>
	</g>
	<g>
		<path class="st3" d="M172.8,275.2c-2.3,0-4.2-1.7-4.5-4c-0.3-2.5,1.5-4.7,4-5c45.8-5,80.3-43.6,80.3-89.7
			c0-49.8-40.5-90.2-90.2-90.2s-90.2,40.5-90.2,90.2c0,46.1,34.5,84.7,80.3,89.7c2.5,0.3,4.3,2.5,4,5c-0.3,2.5-2.5,4.3-5,4
			c-50.4-5.5-88.4-48-88.4-98.7c0-54.8,44.6-99.3,99.3-99.3s99.3,44.6,99.3,99.3c0,50.7-38,93.2-88.4,98.7
			C173.1,275.2,172.9,275.2,172.8,275.2z"/>
	</g>
	<g>
		<path class="st3" d="M99.9,109.7c-0.6,0-1.3-0.1-1.9-0.4c-1.6-0.7-2.7-2.3-2.7-4.1V48.6c0-7.5,6.1-13.7,13.7-13.7
			c7.5,0,13.7,6.1,13.7,13.7v43.9c0,1.7-0.9,3.2-2.4,4c-6.2,3.3-12.1,7.3-17.4,12C102,109.3,101,109.7,99.9,109.7z M109,44
			c-2.5,0-4.6,2.1-4.6,4.6v47.1c3-2.1,6-4.1,9.2-5.9V48.6C113.6,46.1,111.6,44,109,44z M118.2,92.6L118.2,92.6L118.2,92.6z"/>
	</g>
	<g>
		<path class="st3" d="M224.7,109.7c-1.1,0-2.1-0.4-3-1.1c-5.3-4.7-11.2-8.7-17.4-12c-1.5-0.8-2.4-2.3-2.4-4V48.6
			c0-7.5,6.1-13.7,13.7-13.7c7.5,0,13.7,6.1,13.7,13.7v56.5c0,1.8-1,3.4-2.7,4.1C226,109.5,225.3,109.7,224.7,109.7z M211,89.9
			c3.2,1.8,6.2,3.7,9.2,5.9V48.6c0-2.5-2.1-4.6-4.6-4.6c-2.5,0-4.6,2.1-4.6,4.6L211,89.9L211,89.9z"/>
	</g>
</g>
<g id="mountain2">
	<path class="st4" d="M161.5,118.2c-2.1-3.7-5.6-3.7-7.7,0l-41.8,68c-2.1,3.7-0.4,6.7,3.9,6.7h83.5c4.3,0,6-3,3.9-6.7L161.5,118.2z"
		/>
	<path class="st4" d="M161.5,118.1c-2.1-3.7-5.6-3.7-7.7,0l-4.3,10.9l-5.9,5.8l-31.6,51.6c-2.1,3.7-0.4,6.7,3.9,6.7h83.5
		c4.3,0,6-3,3.9-6.7L193,169.6l-15.3-18.9L161.5,118.1z"/>
	<path class="st5" d="M182.8,148.7c0,1.1-0.9,1.9-1.9,1.9c-1.1,0-1.9-0.9-1.9-1.9c0-1.1,0.9-1.9,1.9-1.9
		C181.9,146.8,182.8,147.7,182.8,148.7z"/>
	<path class="st5" d="M188.6,144.9c0,1.1-0.9,1.9-1.9,1.9c-1.1,0-1.9-0.9-1.9-1.9c0-1.1,0.9-1.9,1.9-1.9
		C187.8,142.9,188.6,143.8,188.6,144.9z"/>
	<path class="st5" d="M180.9,141c0,1.1-0.9,1.9-1.9,1.9s-1.9-0.9-1.9-1.9c0-1.1,0.9-1.9,1.9-1.9S180.9,139.9,180.9,141z"/>
	<path class="st5" d="M175,135.2c0,1.1-0.9,1.9-1.9,1.9c-1.1,0-1.9-0.9-1.9-1.9s0.9-1.9,1.9-1.9C174.2,133.2,175,134.1,175,135.2z"
		/>
	<path class="st6" d="M160.7,135.3c0.2-0.1,0.5-0.1,0.7-0.1c0.7,0,1.3,0.3,1.7,1c0,0,12.6,18.2,17.3,26.1c4.7,7.9,12.6,7.4,12.6,7.4
		l-31.6-51.5c-2.1-3.7-5.6-3.7-7.7,0l-10.2,16.6c0,0,5.9,4.1,8.5,4.1C154.7,138.8,160.7,135.3,160.7,135.3z"/>
</g>
<g id="mountain3">
	<path class="st4" d="M199.3,132.6c-2.1-3.7-5.6-3.7-7.7,0l-41.8,68c-2.1,3.7-0.4,6.7,3.9,6.7h83.5c4.3,0,6-3,3.9-6.7L199.3,132.6z"
		/>
	<path class="st4" d="M199.3,132.4c-2.1-3.7-5.6-3.7-7.7,0l-4.3,10.9l-5.9,5.8l-31.6,51.6c-2.1,3.7-0.4,6.7,3.9,6.7h83.5
		c4.3,0,6-3,3.9-6.7l-10.2-16.7L215.6,165L199.3,132.4z"/>
	<path class="st6" d="M198.6,149.6c0.2-0.1,0.5-0.1,0.7-0.1c0.7,0,1.3,0.3,1.7,1c0,0,12.6,18.2,17.3,26.1c4.7,7.9,12.6,7.4,12.6,7.4
		l-31.6-51.5c-2.1-3.7-5.6-3.7-7.7,0L181.4,149c0,0,5.9,4.1,8.5,4.1C192.6,153.1,198.6,149.6,198.6,149.6z"/>
</g>
<g id="mountain1">
	<path class="st4" d="M141.4,136.2c-2.1-3.7-5.6-3.7-7.7,0l-41.8,68c-2.1,3.7-0.4,6.7,3.9,6.7h83.5c4.3,0,6-3,3.9-6.7L141.4,136.2z"
		/>
	<path class="st4" d="M141.4,136c-2.1-3.7-5.6-3.7-7.7,0l-4.3,10.9l-5.9,5.8l-31.6,51.6c-2.1,3.7-0.4,6.7,3.9,6.7h83.5
		c4.3,0,6-3,3.9-6.7L173,187.5l-15.3-18.9L141.4,136z"/>
	<path class="st6" d="M140.7,153.2c0.2-0.1,0.5-0.1,0.7-0.1c0.7,0,1.3,0.3,1.7,1c0,0,12.6,18.2,17.3,26.1c4.7,7.9,12.6,7.4,12.6,7.4
		L141.4,136c-2.1-3.7-5.6-3.7-7.7,0l-10.2,16.6c0,0,5.9,4.1,8.5,4.1C134.7,156.7,140.7,153.2,140.7,153.2z"/>
</g>
</svg>
