<?xml version="1.0" encoding="iso-8859-1"?>
<!-- Generator: Adobe Illustrator 19.0.0, SVG Export Plug-In . SVG Version: 6.00 Build 0)  -->
<svg version="1.1" id="Layer_1" xmlns="http://www.w3.org/2000/svg" xmlns:xlink="http://www.w3.org/1999/xlink" x="0px" y="0px"
	 viewBox="0 0 512 512" style="enable-background:new 0 0 512 512;" xml:space="preserve">
<path style="fill:#009BDE;" d="M351.189,34.181c34.976-34.974,91.677-34.976,126.652,0.001
	c34.973,34.974,34.973,91.674,0.001,126.651L160.857,477.819c-34.973,34.975-91.677,34.975-126.65-0.001
	c-34.974-34.974-34.975-91.676,0-126.65L351.189,34.181z"/>
<g>
	<path style="fill:#61B4E4;" d="M351.189,34.181l-5.439,5.438l126.654,126.653l5.439-5.439
		c34.972-34.977,34.972-91.677-0.001-126.651C442.868-0.794,386.165-0.793,351.189,34.181z"/>
	<path style="fill:#61B4E4;" d="M34.205,351.165l5.438-5.438L166.296,472.38l-5.439,5.438
		c-34.977,34.973-91.677,34.974-126.65-0.002C-0.77,442.842-0.768,386.141,34.205,351.165z"/>
</g>
<path style="opacity:0.2;enable-background:new    ;" d="M142.672,406.234c15.929,15.929,41.757,15.929,57.684,0.001
	c15.928-15.929,15.927-41.756-0.002-57.684l-28.839-28.843l-57.683,57.684L142.672,406.234z"/>
<path style="fill:#333E48;" d="M116.234,386.083c-11.233,11.231-18.621,0.85-21.399-4.552
	c-11.606-22.569-7.951-50.954,10.955-69.863c18.908-18.909,47.295-22.561,69.864-10.956c5.402,2.778,15.783,10.167,4.553,21.397
	L116.234,386.083z"/>
<path style="opacity:0.2;enable-background:new    ;" d="M406.259,142.65c15.928,15.928,15.928,41.755,0,57.684
	c-15.928,15.928-41.756,15.927-57.684-0.002l-28.842-28.841l57.684-57.684L406.259,142.65z"/>
<path style="fill:#333E48;" d="M386.107,116.209c11.232-11.232,0.851-18.62-4.552-21.397c-22.57-11.606-50.954-7.952-69.863,10.954
	c-18.91,18.909-22.561,47.296-10.956,69.865c2.777,5.403,10.168,15.782,21.398,4.552L386.107,116.209z"/>
<g>
	<path style="fill:#FFFFFF;" d="M238.952,246.875c-2.034,0-4.069-0.776-5.621-2.329l-29.695-29.695
		c-3.105-3.105-3.105-8.139,0-11.243c3.105-3.105,8.139-3.105,11.243,0l29.695,29.695c3.105,3.105,3.105,8.139,0,11.242
		C243.02,246.1,240.986,246.875,238.952,246.875z"/>
	<path style="fill:#FFFFFF;" d="M202.225,231.016c-4.391,0-7.95-3.559-7.95-7.95c0-4.391,3.559-7.95,7.95-7.95h12.916V202.2
		c0-4.391,3.559-7.95,7.95-7.95c4.391,0,7.95,3.559,7.95,7.95v20.866c0,4.391-3.559,7.95-7.95,7.95H202.225z"/>
	<path style="fill:#FFFFFF;" d="M209.257,310.714c-2.034,0-4.069-0.776-5.621-2.329c-3.105-3.105-3.105-8.139,0-11.242
		l29.695-29.695c3.105-3.105,8.139-3.105,11.243,0c3.105,3.105,3.105,8.139,0,11.242l-29.695,29.695
		C213.327,309.938,211.291,310.714,209.257,310.714z"/>
	<path style="fill:#FFFFFF;" d="M223.092,317.747c-4.391,0-7.95-3.559-7.95-7.95V296.88h-12.916c-4.391,0-7.95-3.56-7.95-7.95
		c0-4.391,3.559-7.95,7.95-7.95h20.866c4.391,0,7.95,3.559,7.95,7.95v20.867C231.042,314.188,227.483,317.747,223.092,317.747z"/>
	<path style="fill:#FFFFFF;" d="M302.791,310.714c-2.034,0-4.069-0.776-5.621-2.329l-29.695-29.695
		c-3.105-3.105-3.105-8.139,0-11.242c3.105-3.105,8.139-3.105,11.242,0l29.695,29.695c3.105,3.105,3.105,8.139,0,11.242
		C306.86,309.938,304.826,310.714,302.791,310.714z"/>
	<path style="fill:#FFFFFF;" d="M288.957,317.746c-4.391,0-7.95-3.559-7.95-7.95V288.93c0-4.391,3.559-7.95,7.95-7.95h20.867
		c4.391,0,7.95,3.559,7.95,7.95s-3.559,7.95-7.95,7.95h-12.917v12.916C296.907,314.187,293.347,317.746,288.957,317.746z"/>
	<path style="fill:#FFFFFF;" d="M273.096,246.875c-2.034,0-4.069-0.776-5.621-2.329c-3.105-3.105-3.105-8.139,0-11.242
		l29.695-29.695c3.105-3.105,8.139-3.105,11.242,0c3.105,3.105,3.105,8.139,0,11.243l-29.695,29.695
		C277.165,246.1,275.131,246.875,273.096,246.875z"/>
	<path style="fill:#FFFFFF;" d="M309.823,231.016h-20.866c-4.391,0-7.95-3.559-7.95-7.95v-20.867c0-4.391,3.559-7.95,7.95-7.95
		c4.391,0,7.95,3.559,7.95,7.95v12.917h12.916c4.391,0,7.95,3.559,7.95,7.95C317.773,227.456,314.213,231.016,309.823,231.016z"/>
	<path style="fill:#FFFFFF;" d="M231.88,263.948h-41.993c-4.391,0-7.95-3.559-7.95-7.95c0-4.391,3.559-7.95,7.95-7.95h41.993
		c4.391,0,7.95,3.559,7.95,7.95C239.83,260.388,236.27,263.948,231.88,263.948z"/>
	<path style="fill:#FFFFFF;" d="M194.696,278.703c-2.035,0-4.068-0.776-5.621-2.328c-3.105-3.105-3.105-8.139-0.001-11.243
		l9.133-9.134l-9.133-9.133c-3.105-3.105-3.105-8.139,0-11.242c3.105-3.105,8.139-3.105,11.242,0l14.754,14.754
		c3.105,3.105,3.105,8.138,0.001,11.243l-14.754,14.755C198.764,277.926,196.73,278.703,194.696,278.703z"/>
	<path style="fill:#FFFFFF;" d="M256.025,330.086c-4.391,0-7.95-3.559-7.95-7.95v-41.994c0-4.391,3.559-7.95,7.95-7.95
		c4.391,0,7.95,3.56,7.95,7.95v41.994C263.975,326.526,260.415,330.086,256.025,330.086z"/>
	<path style="fill:#FFFFFF;" d="M270.779,325.276c-2.034,0-4.069-0.776-5.622-2.329l-9.132-9.133l-9.134,9.133
		c-3.105,3.105-8.139,3.105-11.243,0s-3.105-8.139,0-11.242l14.755-14.755c1.49-1.491,3.513-2.329,5.621-2.329l0,0
		c2.108,0,4.131,0.837,5.622,2.329l14.754,14.755c3.105,3.105,3.104,8.139,0,11.243
		C274.848,324.499,272.813,325.276,270.779,325.276z"/>
	<path style="fill:#FFFFFF;" d="M322.162,263.948C322.161,263.948,322.162,263.948,322.162,263.948h-41.994
		c-4.391,0-7.95-3.559-7.95-7.95c0-4.391,3.56-7.95,7.95-7.95l0,0h41.994c4.391,0,7.95,3.559,7.95,7.95
		C330.112,260.388,326.552,263.948,322.162,263.948z"/>
	<path style="fill:#FFFFFF;" d="M317.352,278.702c-2.034,0-4.068-0.776-5.621-2.328l-14.756-14.754
		c-1.491-1.491-2.329-3.513-2.329-5.622c0-2.108,0.837-4.131,2.329-5.622l14.756-14.754c3.105-3.104,8.139-3.104,11.243,0
		c3.105,3.105,3.104,8.139,0,11.243l-9.134,9.133l9.134,9.133c3.105,3.105,3.105,8.139,0,11.243
		C321.422,277.926,319.387,278.702,317.352,278.702z"/>
	<path style="fill:#FFFFFF;" d="M256.024,239.804L256.024,239.804c-4.391,0-7.95-3.559-7.95-7.95l0.001-41.993
		c0-4.391,3.559-7.95,7.95-7.95l0,0c4.391,0,7.95,3.559,7.95,7.95l-0.001,41.993C263.974,236.245,260.414,239.804,256.024,239.804z"
		/>
	<path style="fill:#FFFFFF;" d="M256.026,217.375c-2.108,0-4.131-0.837-5.622-2.329l-14.755-14.754
		c-3.105-3.105-3.105-8.138,0-11.242c3.105-3.105,8.139-3.106,11.243,0l9.133,9.133l9.132-9.133
		c3.105-3.105,8.138-3.105,11.243-0.001c3.105,3.105,3.105,8.139,0.001,11.243l-14.753,14.754
		C260.155,216.536,258.133,217.375,256.026,217.375z"/>
	<path style="fill:#FFFFFF;" d="M256.025,287.422c-17.328,0-31.425-14.097-31.425-31.424s14.097-31.424,31.425-31.424
		c17.327,0,31.423,14.097,31.423,31.424S273.351,287.422,256.025,287.422z M256.025,240.474c-8.561,0-15.525,6.964-15.525,15.524
		s6.964,15.524,15.525,15.524c8.56,0,15.523-6.964,15.523-15.524C271.548,247.438,264.584,240.474,256.025,240.474z"/>
</g>
<path style="fill:#1E252B;" d="M483.464,28.561C465.047,10.143,440.561,0,414.517,0c-26.044,0-50.53,10.142-68.948,28.56
	L28.584,345.546c-18.416,18.416-28.56,42.903-28.56,68.947c0.001,26.044,10.143,50.53,28.559,68.947
	C47,501.857,71.486,512,97.531,512c26.044,0,50.53-10.142,68.946-28.559l316.987-316.987
	C521.48,128.435,521.479,66.577,483.464,28.561z M472.221,155.212L155.235,472.198C139.823,487.611,119.33,496.1,97.533,496.1
	c-21.799,0-42.292-8.488-57.705-23.903c-15.413-15.414-23.902-35.906-23.902-57.704s8.488-42.291,23.902-57.704L356.812,39.802
	C372.226,24.389,392.719,15.9,414.517,15.9s42.291,8.49,57.704,23.904C504.036,71.62,504.037,123.393,472.221,155.212z
	 M188.176,325.128c4.908-6.08,5.376-11.56,4.795-15.27c-1.007-6.436-5.866-12.194-13.682-16.214
	c-9.543-4.907-20.286-7.501-31.07-7.501c-18.151,0-35.216,7.069-48.052,19.905c-20.97,20.973-25.954,52.769-12.403,79.12
	c4.603,8.952,11.268,13.882,18.769,13.882c4.356,0,8.614-1.7,12.702-5.007l17.814,17.815c9.503,9.503,21.982,14.253,34.465,14.253
	c12.479,0,24.962-4.752,34.463-14.252c19.003-19.004,19.002-49.924-0.002-68.927L188.176,325.128z M110.612,380.461
	c-2.121,2.121-3.562,2.687-4.079,2.687c-0.778,0-2.787-1.67-4.629-5.253c-10.38-20.182-6.558-44.538,9.506-60.606
	c9.833-9.833,22.905-15.248,36.809-15.248c8.266,0,16.495,1.985,23.798,5.741c3.594,1.848,5.125,3.761,5.245,4.531
	c0.07,0.447-0.4,1.895-2.678,4.174L110.612,380.461z M194.735,400.614c-12.803,12.803-33.636,12.804-46.442-0.001l-17.673-17.673
	l46.44-46.44l17.672,17.673C207.538,366.977,207.539,387.81,194.735,400.614z M394.076,119.227
	c4.909-6.081,5.377-11.562,4.797-15.272c-1.008-6.436-5.867-12.194-13.682-16.212c-9.542-4.907-20.286-7.501-31.069-7.501
	c-18.15,0-35.215,7.068-48.051,19.903c-20.972,20.97-25.956,52.767-12.405,79.121c4.601,8.952,11.268,13.882,18.771,13.882l0,0
	c4.356,0,8.614-1.7,12.702-5.009l17.815,17.815c9.205,9.205,21.444,14.275,34.464,14.275c0,0,0,0,0.001,0
	c13.018,0,25.258-5.07,34.463-14.274c19.003-19.004,19.002-49.924-0.002-68.927L394.076,119.227z M316.513,174.561
	c-2.12,2.121-3.559,2.686-4.077,2.686c-0.778-0.001-2.788-1.669-4.63-5.252c-10.38-20.186-6.559-44.542,9.507-60.607
	c9.833-9.832,22.905-15.246,36.809-15.246c8.265,0,16.495,1.985,23.798,5.741c3.593,1.847,5.123,3.759,5.244,4.53
	c0.07,0.447-0.4,1.895-2.679,4.174L316.513,174.561z M400.636,194.713c-6.202,6.202-14.449,9.617-23.22,9.617
	s-17.018-3.416-23.22-9.618l-17.673-17.674l46.44-46.44l17.673,17.673C413.439,161.076,413.44,181.909,400.636,194.713z"/>
<g>
</g>
<g>
</g>
<g>
</g>
<g>
</g>
<g>
</g>
<g>
</g>
<g>
</g>
<g>
</g>
<g>
</g>
<g>
</g>
<g>
</g>
<g>
</g>
<g>
</g>
<g>
</g>
<g>
</g>
</svg>
